<?xml version="1.0" encoding="utf-8"?>
<!-- Generator: Adobe Illustrator 16.0.0, SVG Export Plug-In . SVG Version: 6.00 Build 0)  -->
<!DOCTYPE svg PUBLIC "-//W3C//DTD SVG 1.1//EN" "http://www.w3.org/Graphics/SVG/1.1/DTD/svg11.dtd">
<svg version="1.1" id="Layer_1" xmlns="http://www.w3.org/2000/svg" xmlns:xlink="http://www.w3.org/1999/xlink" x="0px" y="0px"
	 width="12.59px" height="10.82px" viewBox="0 0 12.59 10.82" enable-background="new 0 0 12.59 10.82" xml:space="preserve">
<g transform="translate(0 0)">
	<path fill="#FF690F" d="M11.116,0h-9.64C0.661,0.001,0,0.661,0,1.476v5.899c0,0.815,0.661,1.476,1.476,1.477H5.8v0.983H3.246v0.984
		h6.1V9.836H6.787V8.852h4.329c0.814-0.001,1.475-0.661,1.475-1.477V1.476C12.59,0.662,11.93,0.001,11.116,0z M11.608,7.378
		c0,0.272-0.221,0.492-0.492,0.492l0,0h-9.64c-0.272,0-0.492-0.22-0.492-0.492l0,0V1.478c0-0.272,0.22-0.492,0.492-0.492l0,0h9.64
		c0.271,0,0.492,0.22,0.492,0.492l0,0V7.378z"/>
</g>
</svg>
