<svg xmlns="http://www.w3.org/2000/svg" width="12.591" height="10.82" viewBox="0 0 12.591 10.82"><defs><style>.a{fill:#0b7b99;}</style></defs><g transform="translate(0 0)"><path class="a" d="M11.116,36H1.476A1.477,1.477,0,0,0,0,37.476v5.9a1.477,1.477,0,0,0,1.476,1.476H5.8v.984H3.246v.984h6.1v-.984H6.787v-.984h4.328a1.477,1.477,0,0,0,1.476-1.476v-5.9A1.477,1.477,0,0,0,11.116,36Zm.492,7.378a.492.492,0,0,1-.492.492H1.476a.492.492,0,0,1-.492-.492v-5.9a.492.492,0,0,1,.492-.492h9.64a.492.492,0,0,1,.492.492Z" transform="translate(0 -36)"/></g></svg>