<?xml version="1.0" encoding="utf-8"?>
<!-- Generator: Adobe Illustrator 16.0.0, SVG Export Plug-In . SVG Version: 6.00 Build 0)  -->
<!DOCTYPE svg PUBLIC "-//W3C//DTD SVG 1.1//EN" "http://www.w3.org/Graphics/SVG/1.1/DTD/svg11.dtd">
<svg version="1.1" id="Layer_1" xmlns="http://www.w3.org/2000/svg" xmlns:xlink="http://www.w3.org/1999/xlink" x="0px" y="0px"
	 width="7.934px" height="12.59px" viewBox="0 0 7.934 12.59" enable-background="new 0 0 7.934 12.59" xml:space="preserve">
<g transform="translate(0)">
	<path fill="#FF690F" d="M7.583,0.352L7.583,0.352C7.36,0.127,7.056,0,6.739,0H1.194C0.536,0.003,0.003,0.536,0,1.194V11.4
		c0,0.661,0.533,1.196,1.193,1.2H6.74c0.66-0.004,1.193-0.539,1.193-1.2V1.2C7.935,0.882,7.809,0.577,7.583,0.352z M3.967,11.782
		L3.967,11.782c-0.179,0-0.323-0.146-0.323-0.324c0-0.178,0.145-0.322,0.323-0.322S4.29,11.28,4.29,11.458l0,0
		C4.29,11.636,4.146,11.782,3.967,11.782z M6.986,9.756c0,0.43-0.349,0.779-0.779,0.779H1.727c-0.431,0-0.78-0.35-0.78-0.779v-7.6
		c0-0.431,0.35-0.78,0.78-0.78h4.48c0.431,0,0.779,0.349,0.779,0.78L6.986,9.756z"/>
</g>
</svg>
