<svg xmlns="http://www.w3.org/2000/svg" width="22.808" height="36.194" viewBox="0 0 22.808 36.194"><defs><style>.a{fill:#0b7b99;}</style></defs><g transform="translate(0)"><path class="a" d="M93.4,1.013v0A3.425,3.425,0,0,0,90.972,0H75.032A3.444,3.444,0,0,0,71.6,3.432V32.758a3.447,3.447,0,0,0,3.432,3.436H90.976a3.447,3.447,0,0,0,3.432-3.432V3.436A3.425,3.425,0,0,0,93.4,1.013ZM83,33.864h0a.927.927,0,1,1,.927-.927A.927.927,0,0,1,83,33.864Zm8.678-5.822a2.243,2.243,0,0,1-2.243,2.243H76.565a2.243,2.243,0,0,1-2.243-2.243V6.188a2.243,2.243,0,0,1,2.243-2.243H89.443a2.243,2.243,0,0,1,2.243,2.243Z" transform="translate(-71.6)"/></g></svg>