<svg xmlns="http://www.w3.org/2000/svg" width="7.934" height="12.591" viewBox="0 0 7.934 12.591"><defs><style>.a{fill:#0b7b99;}</style></defs><g transform="translate(0)"><path class="a" d="M79.183.352h0A1.191,1.191,0,0,0,78.339,0H72.794A1.2,1.2,0,0,0,71.6,1.194V11.4a1.2,1.2,0,0,0,1.194,1.2H78.34A1.2,1.2,0,0,0,79.534,11.4V1.2A1.192,1.192,0,0,0,79.183.352ZM75.567,11.781h0a.323.323,0,1,1,.323-.323A.323.323,0,0,1,75.567,11.781Zm3.019-2.025a.78.78,0,0,1-.78.78H73.327a.78.78,0,0,1-.78-.78v-7.6a.78.78,0,0,1,.78-.78h4.48a.78.78,0,0,1,.78.78Z" transform="translate(-71.6)"/></g></svg>