<svg xmlns="http://www.w3.org/2000/svg" width="10.265" height="12.591" viewBox="0 0 10.265 12.591"><defs><style>.a{fill:#0b7b99;}</style></defs><path class="a" d="M98.781,419.9h3.086v.746H98.781Z" transform="translate(-97.227 -409.606)"/><path class="a" d="M43.284,5.941,45.2,4a5.308,5.308,0,0,0,1.065-1.573,4.313,4.313,0,0,0,.4-1.868L46.645,0H46.11a4.314,4.314,0,0,0-1.868.4,5.306,5.306,0,0,0-1.572,1.064L40.712,3.41V5.4L39.441,6.66H37.292v.756h.362a.411.411,0,0,1,0,.822l-1.253,0v4.35H42.52V8.242l-1.253,0a.411.411,0,0,1,0-.822h.386V6.66H40.488l.726-.719h2.07Zm-1.5,5.914H37.138V8.978h4.646v2.876ZM40.2,8.242H38.723a1.143,1.143,0,0,0-.006-.845H40.2a1.143,1.143,0,0,0-.006.845ZM42.976,5.2H41.957l.635-.63H43.6ZM45.929.737a4.287,4.287,0,0,1-1.249,2.741l-.354.359h-.989l1.478-1.464L44.3,1.85,42.821,3.311V2.352l.368-.366A4.285,4.285,0,0,1,45.929.737Zm-4.48,2.979.635-.632v.956l-.635.63Z" transform="translate(-36.401 0)"/></svg>