<?xml version="1.0" encoding="utf-8"?>
<!-- Generator: Adobe Illustrator 16.0.0, SVG Export Plug-In . SVG Version: 6.00 Build 0)  -->
<!DOCTYPE svg PUBLIC "-//W3C//DTD SVG 1.1//EN" "http://www.w3.org/Graphics/SVG/1.1/DTD/svg11.dtd">
<svg version="1.1" id="Layer_1" xmlns="http://www.w3.org/2000/svg" xmlns:xlink="http://www.w3.org/1999/xlink" x="0px" y="0px"
	 width="10.266px" height="12.59px" viewBox="0 0 10.266 12.59" enable-background="new 0 0 10.266 12.59" xml:space="preserve">
<path fill="#FF690F" d="M1.554,10.293H4.64v0.746H1.554V10.293z"/>
<path fill="#FF690F" d="M6.883,5.941L8.799,4c0.447-0.456,0.808-0.989,1.065-1.573c0.271-0.584,0.408-1.223,0.4-1.868L10.244,0
	H9.709C9.064-0.008,8.426,0.129,7.841,0.4C7.258,0.657,6.724,1.018,6.269,1.464L4.311,3.41V5.4L3.04,6.66H0.891v0.756h0.361
	c0.228,0,0.411,0.184,0.411,0.41c0,0.228-0.184,0.411-0.411,0.411H0v4.351h6.119V8.243H4.866c-0.227,0-0.411-0.185-0.411-0.412
	c0-0.227,0.185-0.41,0.411-0.41l0,0h0.386V6.66H4.087l0.727-0.719H6.883z M5.383,11.855H0.737V8.978h4.646V11.855L5.383,11.855z
	 M3.799,8.243H2.322c0.106-0.273,0.104-0.575-0.006-0.846h1.482C3.689,7.667,3.687,7.969,3.793,8.243H3.799z M6.575,5.2H5.556
	l0.635-0.63h1.008L6.575,5.2z M9.528,0.737C9.457,1.771,9.013,2.746,8.279,3.478L7.925,3.837H6.936l1.478-1.464L7.899,1.85
	L6.42,3.311V2.352l0.368-0.366C7.52,1.252,8.494,0.808,9.528,0.737z M5.048,3.716l0.636-0.632V4.04L5.048,4.67V3.716z"/>
</svg>
