<svg xmlns="http://www.w3.org/2000/svg" width="29.508" height="36.194" viewBox="0 0 29.508 36.194"><defs><style>.a{fill:#0b7b99;}</style></defs><path class="a" d="M98.781,419.9h8.87v2.145h-8.87Z" transform="translate(-94.314 -390.304)"/><path class="a" d="M56.186,17.077,61.7,11.492a15.257,15.257,0,0,0,3.061-4.522A12.4,12.4,0,0,0,65.9,1.6L65.848.006H64.309a12.4,12.4,0,0,0-5.371,1.142,15.253,15.253,0,0,0-4.52,3.059L48.793,9.8v5.721l-3.653,3.62H38.962v2.172H40a1.181,1.181,0,0,1,0,2.362l-3.6.014v12.5h17.59v-12.5l-3.6-.014a1.181,1.181,0,0,1,0-2.362H51.5V19.143H48.149l2.086-2.067h5.952Zm-4.313,17H38.519V25.809H51.873v8.268ZM47.315,23.691H43.076a3.287,3.287,0,0,0-.016-2.43h4.271a3.286,3.286,0,0,0-.016,2.43ZM55.3,14.959H52.372l1.826-1.81h2.889ZM63.789,2.12A12.324,12.324,0,0,1,60.2,10l-1.019,1.032H56.335l4.248-4.21-1.49-1.5-4.239,4.2V6.76l1.059-1.053A12.318,12.318,0,0,1,63.789,2.12ZM50.911,10.683l1.827-1.817v2.749l-1.827,1.81Z" transform="translate(-36.401 0)"/></svg>