<svg xmlns="http://www.w3.org/2000/svg" width="36.194" height="35.771" viewBox="0 0 36.194 35.771"><defs><style>.a{fill:#0b7b99;}</style></defs><path class="a" d="M35.829,28.022l-3.9-3.856-.008-.009-.009-.008-6.072-6,9.985-9.869a1.22,1.22,0,0,0,0-1.74L29.579.365A1.253,1.253,0,0,0,28.7,0h0a1.225,1.225,0,0,0-.123.006,1.251,1.251,0,0,0-.757.354L21.572,6.537l0,0-3.739,3.7-2.17-2.145h0l-3.9-3.853-.01-.011-.011-.01L7.841.361a1.255,1.255,0,0,0-1.761,0L.365,6.012a1.22,1.22,0,0,0,0,1.74l9.99,9.873L.365,27.5a1.224,1.224,0,0,0-.365.87v6.174a1.223,1.223,0,0,0,.365.87,1.253,1.253,0,0,0,.88.36H7.492a1.252,1.252,0,0,0,.88-.36l9.989-9.872,9.99,9.873a1.255,1.255,0,0,0,1.76,0l5.718-5.65a1.22,1.22,0,0,0,0-1.74ZM28.7,11.841,24.213,7.408,28.7,2.975l4.485,4.434ZM3.005,6.882l3.956-3.91L9.11,5.1,7.131,7.051a1.22,1.22,0,0,0,0,1.74,1.255,1.255,0,0,0,1.761,0L10.87,6.835,13.02,8.959l-2.733,2.7a1.22,1.22,0,0,0,0,1.74,1.255,1.255,0,0,0,1.76,0l2.733-2.7,1.29,1.275-3.956,3.91Zm3.97,26.429H2.49V28.877L22.452,9.148l4.485,4.434ZM29.231,32.8l-9.11-9,3.957-3.911,1.291,1.276-2.733,2.7a1.22,1.22,0,0,0,0,1.74,1.255,1.255,0,0,0,1.76,0l2.733-2.7,2.149,2.124L27.3,26.982a1.22,1.22,0,0,0,0,1.74,1.255,1.255,0,0,0,1.76,0l1.978-1.955,2.149,2.124Z" transform="translate(0 -0.001)"/></svg>