<svg xmlns="http://www.w3.org/2000/svg" width="12.591" height="12.444" viewBox="0 0 12.591 12.444"><defs><style>.a{fill:#0b7b99;}</style></defs><path class="a" d="M12.464,9.749,11.107,8.407l0,0,0,0L8.989,6.314l3.474-3.433a.424.424,0,0,0,0-.605L10.29.128A.436.436,0,0,0,9.984,0h0L9.941,0a.435.435,0,0,0-.263.123L7.5,2.275h0L6.2,3.561l-.755-.746h0L4.092,1.474l0,0,0,0L2.728.126a.437.437,0,0,0-.612,0L.127,2.092a.424.424,0,0,0,0,.605L3.6,6.132.127,9.567a.426.426,0,0,0-.127.3v2.148a.426.426,0,0,0,.127.3.436.436,0,0,0,.306.125H2.606a.436.436,0,0,0,.306-.125L6.387,8.885,9.863,12.32a.437.437,0,0,0,.612,0l1.989-1.966a.425.425,0,0,0,0-.605ZM9.983,4.12,8.423,2.578l1.56-1.542,1.56,1.542ZM1.046,2.395l1.376-1.36.747.739-.688.68a.424.424,0,0,0,0,.605.437.437,0,0,0,.612,0l.688-.68.748.739-.951.939a.424.424,0,0,0,0,.605.437.437,0,0,0,.612,0l.951-.939.449.444L4.215,5.527Zm1.381,9.194H.866V10.046L7.811,3.183l1.56,1.543Zm7.742-.177L7,8.28,8.376,6.919l.449.444-.951.94a.424.424,0,0,0,0,.605.437.437,0,0,0,.612,0l.951-.94.748.739-.688.68a.424.424,0,0,0,0,.605.437.437,0,0,0,.612,0l.688-.68.748.739Z" transform="translate(0 -0.001)"/></svg>