<?xml version="1.0" encoding="utf-8"?>
<!-- Generator: Adobe Illustrator 16.0.0, SVG Export Plug-In . SVG Version: 6.00 Build 0)  -->
<!DOCTYPE svg PUBLIC "-//W3C//DTD SVG 1.1//EN" "http://www.w3.org/Graphics/SVG/1.1/DTD/svg11.dtd">
<svg version="1.1" id="Layer_1" xmlns="http://www.w3.org/2000/svg" xmlns:xlink="http://www.w3.org/1999/xlink" x="0px" y="0px"
	 width="12.59px" height="12.443px" viewBox="0 0 12.59 12.443" enable-background="new 0 0 12.59 12.443" xml:space="preserve">
<path fill="#FF690F" d="M12.463,9.748l-1.356-1.342l0,0l0,0L8.989,6.313l3.475-3.433c0.166-0.164,0.169-0.433,0.005-0.6
	c-0.001-0.002-0.003-0.004-0.005-0.006L10.29,0.127c-0.08-0.081-0.191-0.128-0.306-0.128l0,0H9.941
	c-0.099,0.01-0.192,0.053-0.263,0.123L7.5,2.274l0,0L6.2,3.56L5.445,2.814l0,0L4.092,1.473l0,0l0,0L2.728,0.125
	c-0.17-0.167-0.442-0.167-0.612,0L0.127,2.091c-0.167,0.164-0.169,0.433-0.005,0.6c0.002,0.002,0.003,0.004,0.005,0.005L3.6,6.131
	L0.127,9.566C0.046,9.645,0.001,9.753,0,9.866v2.147c0.001,0.113,0.046,0.221,0.127,0.3c0.082,0.08,0.191,0.125,0.306,0.125h2.173
	c0.115,0,0.225-0.045,0.306-0.125l3.475-3.43l3.476,3.435c0.171,0.167,0.442,0.167,0.612,0l1.988-1.966
	c0.168-0.165,0.17-0.434,0.004-0.601C12.467,9.75,12.465,9.749,12.463,9.748z M9.983,4.119L8.422,2.577l1.561-1.542l1.561,1.542
	L9.983,4.119z M1.046,2.394l1.376-1.359l0.747,0.738L2.481,2.453c-0.167,0.164-0.169,0.433-0.005,0.6
	c0.002,0.001,0.003,0.003,0.005,0.005c0.17,0.167,0.442,0.167,0.612,0l0.688-0.68l0.748,0.739L3.578,4.056
	c-0.167,0.164-0.169,0.433-0.005,0.6c0.001,0.002,0.003,0.004,0.005,0.006c0.17,0.166,0.442,0.166,0.612,0l0.951-0.939L5.59,4.166
	L4.215,5.526L1.046,2.394z M2.427,11.588H0.866v-1.543l6.945-6.863l1.561,1.543L2.427,11.588z M10.168,11.411L7,8.279l1.375-1.36
	l0.449,0.443l-0.951,0.94c-0.166,0.164-0.169,0.433-0.005,0.6c0.002,0.002,0.003,0.004,0.005,0.006c0.17,0.166,0.442,0.166,0.612,0
	l0.951-0.94l0.748,0.739l-0.688,0.68c-0.166,0.164-0.169,0.433-0.005,0.6C9.493,9.988,9.495,9.99,9.497,9.991
	c0.17,0.166,0.442,0.166,0.612,0l0.688-0.681l0.748,0.739L10.168,11.411z"/>
</svg>
