<svg xmlns="http://www.w3.org/2000/svg" width="36.194" height="23.752" viewBox="0 0 36.194 23.752"><defs><style>.a{fill:#0b7b99;}</style></defs><path class="a" d="M32.376,88H3.817A3.822,3.822,0,0,0,0,91.817v16.118a3.822,3.822,0,0,0,3.817,3.817H32.376a3.822,3.822,0,0,0,3.817-3.817V91.817A3.822,3.822,0,0,0,32.376,88Zm.424,19.935a.425.425,0,0,1-.424.424H3.817a.425.425,0,0,1-.424-.424V91.817a.425.425,0,0,1,.424-.424H32.376a.425.425,0,0,1,.424.424Z" transform="translate(0 -88)"/><path class="a" d="M171.745,296H161.678a1.678,1.678,0,1,0,0,3.356h10.067a1.678,1.678,0,0,0,0-3.356Z" transform="translate(-148.615 -281.269)"/><path class="a" d="M67.915,296H65.678a1.678,1.678,0,1,0,0,3.356h2.237a1.678,1.678,0,1,0,0-3.356Z" transform="translate(-59.526 -281.269)"/><path class="a" d="M98.8,232H97.678a1.678,1.678,0,1,0,0,3.356H98.8a1.678,1.678,0,0,0,0-3.356Z" transform="translate(-89.203 -221.802)"/><path class="a" d="M184,233.678a1.678,1.678,0,0,0,1.678,1.678H186.8a1.678,1.678,0,0,0,0-3.356h-1.119A1.678,1.678,0,0,0,184,233.678Z" transform="translate(-170.972 -221.802)"/><path class="a" d="M264,233.678a1.678,1.678,0,0,0,1.678,1.678H266.8a1.678,1.678,0,0,0,0-3.356h-1.119A1.678,1.678,0,0,0,264,233.678Z" transform="translate(-245.308 -221.802)"/><path class="a" d="M354.8,235.356a1.678,1.678,0,1,0,0-3.356h-1.119a1.678,1.678,0,0,0,0,3.356Z" transform="translate(-327.078 -221.802)"/><path class="a" d="M65.678,171.356H66.8a1.678,1.678,0,1,0,0-3.356H65.678a1.678,1.678,0,1,0,0,3.356Z" transform="translate(-59.526 -162.334)"/><path class="a" d="M145.678,171.356H146.8a1.678,1.678,0,1,0,0-3.356h-1.119a1.678,1.678,0,1,0,0,3.356Z" transform="translate(-133.804 -162.334)"/><path class="a" d="M305.678,171.356H306.8a1.678,1.678,0,0,0,0-3.356h-1.119a1.678,1.678,0,1,0,0,3.356Z" transform="translate(-282.476 -162.334)"/><path class="a" d="M225.678,171.356H226.8a1.678,1.678,0,1,0,0-3.356h-1.119a1.678,1.678,0,0,0,0,3.356Z" transform="translate(-208.14 -162.334)"/><path class="a" d="M386.8,168h-1.119a1.678,1.678,0,0,0,0,3.356H386.8a1.678,1.678,0,1,0,0-3.356Z" transform="translate(-356.755 -162.334)"/><path class="a" d="M371.915,296h-2.237a1.678,1.678,0,0,0,0,3.356h2.237a1.678,1.678,0,1,0,0-3.356Z" transform="translate(-341.873 -281.269)"/></svg>