<svg xmlns="http://www.w3.org/2000/svg" width="12.591" height="8.263" viewBox="0 0 12.591 8.263"><defs><style>.a{fill:#0b7b99;}</style></defs><path class="a" d="M11.263,88H1.328A1.329,1.329,0,0,0,0,89.328v5.607a1.329,1.329,0,0,0,1.328,1.328h9.935a1.329,1.329,0,0,0,1.328-1.328V89.328A1.329,1.329,0,0,0,11.263,88Zm.148,6.935a.148.148,0,0,1-.148.148H1.328a.148.148,0,0,1-.148-.148V89.328a.148.148,0,0,1,.148-.148h9.935a.148.148,0,0,1,.148.148Z" transform="translate(0 -88)"/><path class="a" d="M164.086,296h-3.5a.584.584,0,1,0,0,1.167h3.5a.584.584,0,1,0,0-1.167Z" transform="translate(-156.039 -290.875)"/><path class="a" d="M65.362,296h-.778a.584.584,0,1,0,0,1.167h.778a.584.584,0,1,0,0-1.167Z" transform="translate(-62.443 -290.875)"/><path class="a" d="M96.973,232h-.389a.584.584,0,1,0,0,1.167h.389a.584.584,0,0,0,0-1.167Z" transform="translate(-93.635 -228.452)"/><path class="a" d="M184,232.584a.584.584,0,0,0,.584.584h.389a.584.584,0,0,0,0-1.167h-.389A.584.584,0,0,0,184,232.584Z" transform="translate(-179.468 -228.452)"/><path class="a" d="M264,232.584a.584.584,0,0,0,.584.584h.389a.584.584,0,0,0,0-1.167h-.389A.584.584,0,0,0,264,232.584Z" transform="translate(-257.497 -228.452)"/><path class="a" d="M352.973,233.167a.584.584,0,1,0,0-1.167h-.389a.584.584,0,0,0,0,1.167Z" transform="translate(-343.33 -228.452)"/><path class="a" d="M64.584,169.167h.389a.584.584,0,1,0,0-1.167h-.389a.584.584,0,1,0,0,1.167Z" transform="translate(-62.443 -166.029)"/><path class="a" d="M144.584,169.167h.389a.584.584,0,1,0,0-1.167h-.389a.584.584,0,1,0,0,1.167Z" transform="translate(-140.453 -166.029)"/><path class="a" d="M304.584,169.167h.389a.584.584,0,0,0,0-1.167h-.389a.584.584,0,0,0,0,1.167Z" transform="translate(-296.512 -166.029)"/><path class="a" d="M224.584,169.167h.389a.584.584,0,1,0,0-1.167h-.389a.584.584,0,1,0,0,1.167Z" transform="translate(-218.483 -166.029)"/><path class="a" d="M384.973,168h-.389a.584.584,0,0,0,0,1.167h.389a.584.584,0,1,0,0-1.167Z" transform="translate(-374.522 -166.029)"/><path class="a" d="M369.362,296h-.778a.584.584,0,0,0,0,1.167h.778a.584.584,0,1,0,0-1.167Z" transform="translate(-358.911 -290.875)"/></svg>