<?xml version="1.0" encoding="utf-8"?>
<!-- Generator: Adobe Illustrator 16.0.0, SVG Export Plug-In . SVG Version: 6.00 Build 0)  -->
<!DOCTYPE svg PUBLIC "-//W3C//DTD SVG 1.1//EN" "http://www.w3.org/Graphics/SVG/1.1/DTD/svg11.dtd">
<svg version="1.1" id="Layer_1" xmlns="http://www.w3.org/2000/svg" xmlns:xlink="http://www.w3.org/1999/xlink" x="0px" y="0px"
	 width="12.59px" height="8.264px" viewBox="0 0 12.59 8.264" enable-background="new 0 0 12.59 8.264" xml:space="preserve">
<path fill="#FF690F" d="M11.263,0H1.328C0.595,0.001,0,0.594,0,1.328v5.607c0,0.732,0.595,1.327,1.328,1.328h9.935
	c0.733-0.001,1.327-0.596,1.327-1.328V1.328C12.59,0.594,11.997,0.001,11.263,0z M11.411,6.935c0,0.081-0.066,0.147-0.147,0.147l0,0
	H1.328c-0.082,0-0.148-0.066-0.148-0.147l0,0V1.328c0-0.082,0.066-0.147,0.148-0.147l0,0h9.935c0.081,0,0.147,0.065,0.147,0.147l0,0
	V6.935z"/>
<path fill="#FF690F" d="M8.047,5.125h-3.5c-0.322-0.013-0.594,0.237-0.607,0.56C3.926,6.007,4.176,6.279,4.499,6.292
	c0.016,0.001,0.032,0.001,0.048,0h3.5C8.37,6.305,8.641,6.055,8.655,5.733S8.418,5.138,8.096,5.125
	C8.079,5.125,8.063,5.125,8.047,5.125z"/>
<path fill="#FF690F" d="M2.919,5.125H2.141c-0.322-0.013-0.594,0.237-0.608,0.56C1.52,6.007,1.77,6.279,2.092,6.292
	c0.016,0.001,0.033,0.001,0.049,0h0.778c0.322,0.014,0.594-0.236,0.608-0.559C3.54,5.411,3.29,5.138,2.968,5.125
	C2.951,5.125,2.935,5.125,2.919,5.125z"/>
<path fill="#FF690F" d="M3.338,3.548H2.949c-0.322-0.013-0.595,0.237-0.608,0.56s0.237,0.595,0.56,0.607
	c0.016,0.001,0.032,0.001,0.048,0h0.389c0.322-0.013,0.573-0.285,0.56-0.607C3.885,3.803,3.642,3.56,3.338,3.548z"/>
<path fill="#FF690F" d="M4.532,4.132c0,0.323,0.261,0.584,0.584,0.584h0.389c0.322-0.013,0.573-0.285,0.56-0.607
	c-0.013-0.304-0.256-0.547-0.56-0.56H5.116C4.794,3.549,4.533,3.809,4.532,4.132z"/>
<path fill="#FF690F" d="M6.503,4.132c0,0.323,0.262,0.584,0.583,0.584l0,0h0.39c0.322-0.013,0.573-0.285,0.56-0.607
	c-0.013-0.304-0.256-0.547-0.56-0.56h-0.39C6.765,3.549,6.503,3.809,6.503,4.132z"/>
<path fill="#FF690F" d="M9.643,4.715c0.322,0.014,0.594-0.236,0.607-0.559s-0.236-0.595-0.559-0.608c-0.017,0-0.033,0-0.049,0H9.254
	C8.932,3.561,8.681,3.834,8.694,4.156C8.708,4.459,8.95,4.703,9.254,4.715H9.643z"/>
<path fill="#FF690F" d="M2.141,3.138H2.53c0.322,0.013,0.595-0.237,0.608-0.56S2.9,1.984,2.578,1.971
	c-0.016-0.001-0.032-0.001-0.048,0H2.141C1.819,1.958,1.547,2.208,1.533,2.53C1.52,2.852,1.771,3.125,2.093,3.138
	C2.109,3.138,2.125,3.138,2.141,3.138z"/>
<path fill="#FF690F" d="M4.131,3.138H4.52c0.322,0.013,0.594-0.237,0.607-0.56S4.891,1.984,4.568,1.971
	c-0.016-0.001-0.032-0.001-0.048,0H4.131C3.809,1.958,3.537,2.208,3.523,2.53s0.237,0.595,0.56,0.608
	C4.099,3.138,4.115,3.138,4.131,3.138z"/>
<path fill="#FF690F" d="M8.073,3.138h0.389C8.784,3.125,9.034,2.852,9.02,2.53C9.008,2.226,8.764,1.983,8.461,1.971H8.073
	C7.75,1.984,7.5,2.257,7.512,2.579C7.526,2.883,7.768,3.126,8.073,3.138z"/>
<path fill="#FF690F" d="M6.101,3.138H6.49c0.323,0.013,0.594-0.237,0.608-0.56c0.013-0.322-0.238-0.595-0.56-0.607
	c-0.016-0.001-0.032-0.001-0.048,0H6.101C5.779,1.958,5.507,2.208,5.493,2.53C5.48,2.852,5.73,3.125,6.053,3.138
	C6.069,3.138,6.085,3.138,6.101,3.138z"/>
<path fill="#FF690F" d="M10.452,1.971h-0.39C9.74,1.984,9.489,2.257,9.502,2.579c0.013,0.304,0.256,0.547,0.56,0.56h0.39
	c0.322,0.013,0.594-0.237,0.607-0.56c0.013-0.322-0.238-0.595-0.561-0.607C10.483,1.97,10.467,1.97,10.452,1.971z"/>
<path fill="#FF690F" d="M10.452,5.125H9.672C9.35,5.138,9.1,5.411,9.114,5.733C9.126,6.036,9.37,6.279,9.672,6.292h0.779
	c0.322,0.014,0.594-0.236,0.607-0.559s-0.237-0.595-0.56-0.608C10.483,5.125,10.467,5.125,10.452,5.125z"/>
</svg>
