<?xml version="1.0" encoding="utf-8"?>
<!-- Generator: Adobe Illustrator 16.0.0, SVG Export Plug-In . SVG Version: 6.00 Build 0)  -->
<!DOCTYPE svg PUBLIC "-//W3C//DTD SVG 1.1//EN" "http://www.w3.org/Graphics/SVG/1.1/DTD/svg11.dtd">
<svg version="1.1" id="Layer_1" xmlns="http://www.w3.org/2000/svg" xmlns:xlink="http://www.w3.org/1999/xlink" x="0px" y="0px"
	 width="12.992px" height="12.139px" viewBox="0 0 12.992 12.139" enable-background="new 0 0 12.992 12.139" xml:space="preserve">
<g transform="translate(0.2 0.204)">
	<path fill="#FF690F" d="M11.824,5.056h-0.635c-0.075-0.27-0.319-0.457-0.601-0.459H9.911V2.94C9.913,2.877,9.88,2.817,9.826,2.785
		L5.045,0.024c-0.055-0.032-0.123-0.032-0.177,0L0.089,2.785C0.034,2.817,0,2.876,0,2.94v5.525C0,8.53,0.034,8.589,0.089,8.621
		l4.783,2.761c0.027,0.016,0.058,0.024,0.089,0.024c0.032,0,0.064-0.009,0.092-0.024L7.57,9.93v1.047
		c-0.001,0.417,0.337,0.756,0.755,0.757c0.002,0,0.005,0,0.008,0h3.491c0.42,0.004,0.763-0.334,0.767-0.753c0-0.002,0-0.003,0-0.004
		V5.825C12.591,5.401,12.248,5.057,11.824,5.056z M10.598,4.956c0.144,0,0.26,0.116,0.26,0.259l0,0v0.018
		c0,0.143-0.116,0.259-0.26,0.259l0,0H9.562c-0.144,0-0.259-0.116-0.259-0.259l0,0V5.215c0-0.143,0.115-0.259,0.259-0.259l0,0
		H10.598z M4.961,0.386l1.987,1.147L2.522,4.088L0.536,2.939L4.961,0.386z M4.791,10.917L0.357,8.36V3.248l4.435,2.555L4.791,10.917
		z M4.961,5.497l-2.082-1.2l4.426-2.555l2.082,1.2L4.961,5.497z M7.57,5.827v3.69l-2.421,1.399V5.804l4.408-2.555v1.349h0.007
		c-0.28,0.002-0.526,0.189-0.601,0.46H8.329C7.908,5.06,7.569,5.404,7.57,5.825V5.827z M12.234,10.978
		c0,0.221-0.179,0.399-0.399,0.399c-0.004,0-0.008,0-0.011,0H8.333c-0.222,0.003-0.402-0.174-0.406-0.395c0-0.002,0-0.004,0-0.005
		V5.825c-0.002-0.226,0.18-0.41,0.404-0.412c0,0,0.001,0,0.002,0h0.641c0.079,0.26,0.32,0.436,0.591,0.433h1.028
		c0.271,0.003,0.512-0.173,0.59-0.433h0.643c0.227,0.002,0.41,0.186,0.41,0.412L12.234,10.978z"/>
	<path fill="#FF690F" d="M8.503,7.653h0.199c0.104,0,0.188-0.084,0.188-0.188S8.805,7.278,8.702,7.278H8.695V6.769h0.517
		c0.024,0.077,0.098,0.129,0.178,0.127c0.104,0,0.188-0.084,0.188-0.188V6.583C9.577,6.479,9.493,6.395,9.389,6.395H8.507
		c-0.104,0-0.188,0.084-0.187,0.188v0.883C8.319,7.568,8.403,7.652,8.505,7.653c0.001,0,0.001,0,0.002,0H8.503z"/>
	<path fill="#FF690F" d="M8.503,9.275h0.883c0.104,0,0.188-0.084,0.188-0.188l0,0V8.205c0-0.104-0.084-0.187-0.188-0.187l0,0H8.503
		c-0.104,0-0.187,0.083-0.187,0.187l0,0v0.883C8.316,9.191,8.399,9.275,8.503,9.275L8.503,9.275z M8.69,8.392h0.509v0.509H8.69
		V8.392z"/>
	<path fill="#FF690F" d="M8.698,10.476H8.691v-0.51h0.507c0,0.104,0.084,0.188,0.188,0.188s0.188-0.084,0.188-0.188V9.786
		C9.573,9.681,9.491,9.597,9.385,9.591H8.503C8.398,9.595,8.315,9.681,8.317,9.786v0.883c0,0.101,0.081,0.182,0.181,0.182
		c0.002,0,0.003,0,0.005,0h0.2c0.104,0,0.188-0.084,0.188-0.188s-0.084-0.188-0.188-0.188L8.698,10.476z"/>
	<path fill="#FF690F" d="M9.788,6.623l-0.55,0.549L9.071,7.005c-0.073-0.073-0.191-0.073-0.266,0c-0.072,0.073-0.072,0.192,0,0.266
		l0.301,0.3c0.072,0.073,0.191,0.073,0.264,0c0.001,0,0.001,0,0.002,0l0.68-0.681c0.074-0.073,0.074-0.192,0-0.266
		C9.979,6.551,9.86,6.551,9.788,6.623L9.788,6.623z"/>
	<path fill="#FF690F" d="M9.788,9.856l-0.55,0.549l-0.167-0.167c-0.073-0.073-0.191-0.073-0.266,0c-0.072,0.073-0.072,0.191,0,0.265
		l0.301,0.3c0.072,0.073,0.191,0.074,0.264,0.001c0.001,0,0.001,0,0.002-0.001l0.68-0.681c0.074-0.073,0.074-0.191,0-0.265
		C9.979,9.784,9.86,9.784,9.788,9.856L9.788,9.856z"/>
	<path fill="#FF690F" d="M11.569,6.855h-1.178c-0.104,0-0.188,0.084-0.188,0.188s0.084,0.188,0.188,0.188h1.178
		c0.104,0,0.188-0.084,0.188-0.188S11.673,6.855,11.569,6.855z"/>
	<path fill="#FF690F" d="M11.569,8.483h-1.178c-0.104,0-0.188,0.084-0.188,0.188s0.084,0.188,0.188,0.188h1.178
		c0.104,0,0.188-0.084,0.188-0.188S11.673,8.483,11.569,8.483z"/>
	<path fill="#FF690F" d="M11.569,10.047h-1.178c-0.104,0-0.188,0.084-0.188,0.188s0.084,0.188,0.188,0.188h1.178
		c0.104,0,0.188-0.084,0.188-0.188S11.673,10.047,11.569,10.047z"/>
</g>
</svg>
