<svg xmlns="http://www.w3.org/2000/svg" width="36.594" height="34.137" viewBox="0 0 36.594 34.137"><defs><style>.a,.b{fill:#0b7b99;}.a{stroke:#0b7b99;stroke-width:0.4px;}</style></defs><g transform="translate(0.2 0.208)"><path class="a" d="M42.99,40.167H41.165a1.8,1.8,0,0,0-1.716-1.319H37.5V34.085a.5.5,0,0,0-.245-.444L23.512,25.7a.508.508,0,0,0-.51,0L9.255,33.64A.512.512,0,0,0,9,34.085V49.96a.513.513,0,0,0,.256.444l13.749,7.938a.513.513,0,0,0,.256.069.54.54,0,0,0,.264-.069l7.235-4.173v3.017a2.172,2.172,0,0,0,2.19,2.177H42.99a2.184,2.184,0,0,0,2.2-2.177V42.379A2.213,2.213,0,0,0,42.99,40.167Zm-3.522-.293a.744.744,0,0,1,.744.744v.05a.744.744,0,0,1-.744.744h-2.98a.744.744,0,0,1-.744-.744v-.05a.744.744,0,0,1,.744-.744ZM23.262,26.739l5.713,3.3L16.252,37.382l-5.713-3.3ZM22.774,57.01,10.026,49.664V34.972l12.748,7.346Zm.488-15.581-5.984-3.455L30,30.629l5.984,3.455Zm7.5.95V52.985L23.8,57.01V42.317l12.675-7.346v3.877h.016a1.8,1.8,0,0,0-1.716,1.319H32.95A2.2,2.2,0,0,0,30.76,42.379ZM44.168,57.186a1.157,1.157,0,0,1-1.178,1.152H32.95a1.145,1.145,0,0,1-1.164-1.152V42.379a1.174,1.174,0,0,1,1.164-1.186H34.8a1.754,1.754,0,0,0,1.7,1.246h2.958a1.754,1.754,0,0,0,1.7-1.246H42.99a1.186,1.186,0,0,1,1.178,1.186Z" transform="translate(-9 -25.634)"/><path class="b" d="M337.535,281.617h.564a.539.539,0,1,0,0-1.077h-.021v-1.462h1.486a.519.519,0,0,0,.512.364.54.54,0,0,0,.542-.537v-.362a.546.546,0,0,0-.544-.541h-2.538a.537.537,0,0,0-.535.541v2.538a.535.535,0,0,0,.535.538Z" transform="translate(-313.096 -259.616)"/><path class="b" d="M337.539,345.617h2.54a.539.539,0,0,0,.539-.539v-2.54a.539.539,0,0,0-.539-.539h-2.54a.539.539,0,0,0-.539.539v2.54A.539.539,0,0,0,337.539,345.617Zm.539-2.54h1.462v1.462h-1.462Z" transform="translate(-313.096 -318.954)"/><path class="b" d="M338.1,408.54h-.021v-1.462h1.457a.541.541,0,0,0,1.083,0v-.519a.562.562,0,0,0-.545-.559h-2.538a.553.553,0,0,0-.535.559V409.1a.52.52,0,0,0,.535.52h.564a.539.539,0,0,0,0-1.077Z" transform="translate(-313.095 -378.427)"/><path class="b" d="M357.332,284.7l-1.578,1.578-.48-.48a.539.539,0,1,0-.762.762l.861.861a.538.538,0,0,0,.762,0l1.959-1.959a.539.539,0,1,0-.762-.762Z" transform="translate(-329.197 -265.659)"/><path class="b" d="M357.332,413.946l-1.578,1.578-.48-.48a.539.539,0,1,0-.762.762l.861.861a.539.539,0,0,0,.762,0l1.959-1.959a.539.539,0,1,0-.762-.762Z" transform="translate(-329.197 -385.616)"/><path class="b" d="M417.813,295H414.43a.539.539,0,0,0,0,1.077h3.384a.539.539,0,0,0,0-1.077Z" transform="translate(-384.555 -275.296)"/><path class="b" d="M417.813,359H414.43a.539.539,0,0,0,0,1.077h3.384a.539.539,0,0,0,0-1.077Z" transform="translate(-384.555 -334.614)"/><path class="b" d="M417.813,423H414.43a.539.539,0,0,0,0,1.077h3.384a.539.539,0,0,0,0-1.077Z" transform="translate(-384.555 -394.119)"/></g></svg>