<svg xmlns="http://www.w3.org/2000/svg" width="12.991" height="12.138" viewBox="0 0 12.991 12.138"><defs><style>.a,.b{fill:#0b7b99;}.a{stroke:#0b7b99;stroke-width:0.4px;}</style></defs><g transform="translate(0.2 0.204)"><path class="a" d="M20.824,30.69h-.635a.625.625,0,0,0-.6-.459h-.678V28.574a.175.175,0,0,0-.085-.155l-4.781-2.761a.177.177,0,0,0-.177,0L9.089,28.419A.178.178,0,0,0,9,28.574V34.1a.178.178,0,0,0,.089.155l4.783,2.761a.178.178,0,0,0,.089.024.188.188,0,0,0,.092-.024l2.517-1.452V36.61a.756.756,0,0,0,.762.757h3.492a.76.76,0,0,0,.767-.757V31.459A.77.77,0,0,0,20.824,30.69Zm-1.225-.1a.259.259,0,0,1,.259.259v.017a.259.259,0,0,1-.259.259H18.562a.259.259,0,0,1-.259-.259v-.017a.259.259,0,0,1,.259-.259Zm-5.638-4.57,1.987,1.147-4.426,2.555L9.536,28.573Zm-.17,10.531L9.357,33.994V28.882l4.435,2.555Zm.17-5.42-2.082-1.2,4.426-2.555,2.082,1.2Zm2.609.33v3.69l-2.421,1.4V31.438l4.409-2.555v1.349h.006a.625.625,0,0,0-.6.459h-.635A.766.766,0,0,0,16.57,31.459Zm4.664,5.151a.4.4,0,0,1-.41.4H17.332a.4.4,0,0,1-.405-.4V31.459a.408.408,0,0,1,.405-.412h.642a.61.61,0,0,0,.59.433h1.029a.61.61,0,0,0,.59-.433h.642a.413.413,0,0,1,.41.412Z" transform="translate(-9 -25.634)"/><path class="b" d="M337.186,279.258h.2a.187.187,0,0,0,0-.375h-.007v-.509h.517a.18.18,0,0,0,.178.127.188.188,0,0,0,.188-.187v-.126a.19.19,0,0,0-.189-.188h-.883a.187.187,0,0,0-.186.188v.883a.186.186,0,0,0,.186.187Z" transform="translate(-328.684 -271.605)"/><path class="b" d="M337.187,343.258h.883a.187.187,0,0,0,.187-.187v-.883a.187.187,0,0,0-.187-.187h-.883a.187.187,0,0,0-.187.187v.883A.187.187,0,0,0,337.187,343.258Zm.187-.883h.509v.509h-.509Z" transform="translate(-328.684 -333.983)"/><path class="b" d="M337.382,406.884h-.007v-.509h.507a.188.188,0,1,0,.377,0v-.181a.2.2,0,0,0-.189-.195h-.883a.193.193,0,0,0-.186.195v.883a.181.181,0,0,0,.186.181h.2a.187.187,0,0,0,0-.375Z" transform="translate(-328.684 -396.408)"/><path class="b" d="M355.39,284.594l-.549.549-.167-.167a.187.187,0,1,0-.265.265l.3.3a.187.187,0,0,0,.265,0l.681-.681a.187.187,0,0,0-.265-.265Z" transform="translate(-345.603 -277.971)"/><path class="b" d="M355.39,413.843l-.549.549-.167-.167a.187.187,0,1,0-.265.265l.3.3a.187.187,0,0,0,.265,0l.681-.681a.187.187,0,0,0-.265-.265Z" transform="translate(-345.603 -403.987)"/><path class="b" d="M415.255,295h-1.177a.187.187,0,0,0,0,.375h1.177a.187.187,0,0,0,0-.375Z" transform="translate(-403.686 -288.145)"/><path class="b" d="M415.255,359h-1.177a.187.187,0,1,0,0,.375h1.177a.187.187,0,1,0,0-.375Z" transform="translate(-403.686 -350.517)"/><path class="b" d="M415.255,423h-1.177a.187.187,0,1,0,0,.375h1.177a.187.187,0,1,0,0-.375Z" transform="translate(-403.686 -412.953)"/></g></svg>