<?xml version="1.0" encoding="utf-8"?>
<!-- Generator: Adobe Illustrator 16.0.0, SVG Export Plug-In . SVG Version: 6.00 Build 0)  -->
<!DOCTYPE svg PUBLIC "-//W3C//DTD SVG 1.1//EN" "http://www.w3.org/Graphics/SVG/1.1/DTD/svg11.dtd">
<svg version="1.1" id="Layer_1" xmlns="http://www.w3.org/2000/svg" xmlns:xlink="http://www.w3.org/1999/xlink" x="0px" y="0px"
	 width="12.59px" height="11.486px" viewBox="0 0 12.59 11.486" enable-background="new 0 0 12.59 11.486" xml:space="preserve">
<g transform="translate(0 3.447)">
	<path fill="#FF690F" d="M11.435,7.293V0.002H8.583v7.291h-0.86V1.131H4.869v6.162H4.008V2.378H1.156v4.915H0v0.748h12.59V7.293
		H11.435z M3.27,7.293H1.894V3.127h1.377L3.27,7.293z M6.983,7.293H5.607V1.879h1.377L6.983,7.293z M10.696,7.293H9.32V0.751h1.38
		L10.696,7.293z"/>
</g>
<g transform="translate(0.439 0)">
	<path fill="#FF690F" d="M9.666,0L9.333,0.638l0.729,0.354L0,4.092l0.225,0.681L10.25,1.688L9.905,2.37l0.664,0.313l0.91-1.801
		L9.666,0z"/>
</g>
</svg>
