<svg xmlns="http://www.w3.org/2000/svg" width="36.194" height="33.017" viewBox="0 0 36.194 33.017"><defs><style>.a{fill:#0b7b99;}</style></defs><g transform="translate(0 9.908)"><path class="a" d="M32.871,188.264V167.307h-8.2v20.957H22.2V170.55H14v17.714H11.523V174.136h-8.2v14.128H0v2.151H36.194v-2.151Zm-23.469,0H5.443V176.288H9.4Zm10.674,0H16.118V172.7h3.959Zm10.674,0H26.792V169.458h3.959Z" transform="translate(0 -167.307)"/></g><g transform="translate(1.262 0)"><path class="a" d="M46.227,22.47,45.271,24.3l2.093,1.017-28.922,8.9.647,1.955,28.818-8.866-.992,1.96,1.912.9L51.441,25Z" transform="translate(-18.442 -22.47)"/></g></svg>