<svg xmlns="http://www.w3.org/2000/svg" width="12.591" height="11.486" viewBox="0 0 12.591 11.486"><defs><style>.a{fill:#0b7b99;}</style></defs><g transform="translate(0 3.447)"><path class="a" d="M11.435,174.6v-7.291H8.583V174.6H7.722v-6.162H4.869V174.6H4.008v-4.915H1.156V174.6H0v.748H12.591V174.6Zm-8.165,0H1.894v-4.166H3.271Zm3.713,0H5.607v-5.414H6.984Zm3.713,0H9.32v-6.542H10.7Z" transform="translate(0 -167.307)"/></g><g transform="translate(0.439 0)"><path class="a" d="M28.108,22.47l-.333.638.728.354-10.061,3.1.225.68,10.025-3.084-.345.682.665.313.91-1.8Z" transform="translate(-18.442 -22.47)"/></g></svg>