<svg xmlns="http://www.w3.org/2000/svg" width="12.591" height="9.518" viewBox="0 0 12.591 9.518"><defs><style>.a{fill:#0b7b99;}</style></defs><g transform="translate(1.025 6.305)"><path class="a" d="M42.522,321.244a1.606,1.606,0,1,0,1.606,1.606A1.608,1.608,0,0,0,42.522,321.244Zm0,2.382a.776.776,0,1,1,.775-.775A.776.776,0,0,1,42.522,323.626Z" transform="translate(-40.916 -321.244)"/></g><g transform="translate(7.966 6.305)"><path class="a" d="M328.932,321.244a1.606,1.606,0,1,0,1.606,1.606A1.608,1.608,0,0,0,328.932,321.244Zm0,2.382a.776.776,0,1,1,.776-.775A.776.776,0,0,1,328.932,323.626Z" transform="translate(-327.326 -321.244)"/></g><g transform="translate(0 1.888)"><path class="a" d="M1.579,144.864a.415.415,0,0,0-.369.225L.046,147.346a.415.415,0,0,0-.046.19v3.351a.415.415,0,0,0,.415.415H1.426v-.831h-.6v-2.835l1-1.943H5v-.831Z" transform="translate(0 -144.864)"/></g><g transform="translate(3.753 7.496)"><rect class="a" width="4.736" height="0.831"/></g><g transform="translate(4.352 0)"><path class="a" d="M190.84,62.479h-7.408a.411.411,0,0,0-.415.407V70.4h.831V63.293h6.578v6.7h-1v.814h1.412a.411.411,0,0,0,.415-.407V62.886A.411.411,0,0,0,190.84,62.479Z" transform="translate(-183.016 -62.479)"/></g><g transform="translate(0.415 4.249)"><rect class="a" width="4.584" height="0.831"/></g><g transform="translate(6.386 2.334)"><path class="a" d="M266.26,158.268a.415.415,0,0,0-.586-.035l-2.059,1.829-.817-.828a.415.415,0,1,0-.591.584l1.094,1.108a.415.415,0,0,0,.571.019l2.354-2.091A.415.415,0,0,0,266.26,158.268Z" transform="translate(-262.086 -158.128)"/></g></svg>