<?xml version="1.0" encoding="utf-8"?>
<!-- Generator: Adobe Illustrator 16.0.0, SVG Export Plug-In . SVG Version: 6.00 Build 0)  -->
<!DOCTYPE svg PUBLIC "-//W3C//DTD SVG 1.1//EN" "http://www.w3.org/Graphics/SVG/1.1/DTD/svg11.dtd">
<svg version="1.1" id="Layer_1" xmlns="http://www.w3.org/2000/svg" xmlns:xlink="http://www.w3.org/1999/xlink" x="0px" y="0px"
	 width="12.59px" height="9.518px" viewBox="0 0 12.59 9.518" enable-background="new 0 0 12.59 9.518" xml:space="preserve">
<g transform="translate(1.025 6.305)">
	<path fill="#FF690F" d="M1.606,0C0.719,0,0,0.719,0,1.606c0,0.887,0.719,1.605,1.606,1.605c0.887,0,1.606-0.719,1.606-1.605l0,0
		C3.211,0.72,2.493,0.001,1.606,0z M1.606,2.382C1.178,2.383,0.829,2.036,0.829,1.607S1.175,0.831,1.604,0.83
		S2.38,1.177,2.381,1.605c0,0,0,0.001,0,0.002C2.38,2.035,2.034,2.382,1.606,2.382L1.606,2.382z"/>
</g>
<g transform="translate(7.966 6.305)">
	<path fill="#FF690F" d="M1.607,0C0.719,0-0.001,0.719-0.001,1.606c0,0.887,0.72,1.605,1.606,1.605c0.888,0,1.606-0.719,1.606-1.605
		l0,0C3.21,0.72,2.492,0.001,1.607,0z M1.607,2.382c-0.43,0-0.777-0.348-0.777-0.775c0-0.429,0.348-0.776,0.777-0.776
		c0.428,0,0.775,0.348,0.775,0.776c0,0,0,0,0,0.001C2.382,2.035,2.034,2.382,1.607,2.382L1.607,2.382z"/>
</g>
<g transform="translate(0 1.888)">
	<path fill="#FF690F" d="M1.579,0C1.424,0,1.281,0.087,1.21,0.225L0.046,2.482C0.016,2.541,0,2.606,0,2.672v3.352
		c0,0.229,0.186,0.415,0.415,0.415h1.011V5.607h-0.6V2.772l1-1.943H5v-0.831L1.579,0z"/>
</g>
<g transform="translate(3.753 7.496)">
	<rect x="0" y="0" fill="#FF690F" width="4.736" height="0.831"/>
</g>
<g transform="translate(4.352 0)">
	<path fill="#FF690F" d="M7.824,0H0.416C0.189-0.003,0.003,0.18,0.001,0.406c0,0.001,0,0.001,0,0.001v7.514h0.831V0.814H7.41v6.7h-1
		v0.814h1.412C8.049,8.33,8.234,8.148,8.236,7.921l0,0V0.407C8.234,0.181,8.051-0.001,7.824,0z"/>
</g>
<g transform="translate(0.415 4.249)">
	<rect x="0" y="0" fill="#FF690F" width="4.584" height="0.831"/>
</g>
<g transform="translate(6.386 2.334)">
	<path fill="#FF690F" d="M4.174,0.14C4.022-0.031,3.759-0.048,3.588,0.105l0,0l-2.06,1.829L0.712,1.106
		C0.55,0.943,0.288,0.942,0.125,1.103C-0.039,1.264-0.04,1.527,0.121,1.69l1.094,1.108C1.37,2.955,1.62,2.963,1.786,2.817
		L4.14,0.726C4.312,0.573,4.326,0.312,4.174,0.14L4.174,0.14z"/>
</g>
</svg>
