<svg xmlns="http://www.w3.org/2000/svg" width="36.194" height="27.36" viewBox="0 0 36.194 27.36"><defs><style>.a{fill:#0b7b99;}</style></defs><g transform="translate(2.946 18.125)"><path class="a" d="M45.533,321.244a4.617,4.617,0,1,0,4.617,4.618A4.623,4.623,0,0,0,45.533,321.244Zm0,6.847a2.229,2.229,0,1,1,2.229-2.229A2.232,2.232,0,0,1,45.533,328.091Z" transform="translate(-40.916 -321.244)"/></g><g transform="translate(22.899 18.125)"><path class="a" d="M331.943,321.244a4.617,4.617,0,1,0,4.617,4.618A4.622,4.622,0,0,0,331.943,321.244Zm0,6.847a2.229,2.229,0,1,1,2.229-2.229A2.231,2.231,0,0,1,331.943,328.091Z" transform="translate(-327.326 -321.244)"/></g><g transform="translate(0 5.427)"><path class="a" d="M4.538,144.864a1.194,1.194,0,0,0-1.062.647L.133,152a1.193,1.193,0,0,0-.133.547v9.633a1.194,1.194,0,0,0,1.194,1.194H4.1v-2.388H2.388v-8.149l2.878-5.584h9.1v-2.388Z" transform="translate(0 -144.864)"/></g><g transform="translate(10.787 21.549)"><rect class="a" width="13.613" height="2.388"/></g><g transform="translate(12.509 0)"><path class="a" d="M205.506,62.479h-21.3a1.182,1.182,0,0,0-1.194,1.17v21.6H185.4V64.818h18.908V84.077h-2.866v2.339h4.06a1.182,1.182,0,0,0,1.194-1.169v-21.6A1.182,1.182,0,0,0,205.506,62.479Z" transform="translate(-183.016 -62.479)"/></g><g transform="translate(1.194 12.213)"><rect class="a" width="13.176" height="2.388"/></g><g transform="translate(18.356 6.708)"><path class="a" d="M274.084,158.529a1.193,1.193,0,0,0-1.686-.1l-5.92,5.258-2.348-2.379a1.194,1.194,0,0,0-1.7,1.678l3.144,3.184a1.193,1.193,0,0,0,1.642.054l6.767-6.011A1.194,1.194,0,0,0,274.084,158.529Z" transform="translate(-262.086 -158.128)"/></g></svg>