<svg xmlns="http://www.w3.org/2000/svg" width="29.623" height="36.194" viewBox="0 0 29.623 36.194"><defs><style>.a{fill:#0b7b99;}</style></defs><g transform="translate(0 0)"><path class="a" d="M57.282,31.872a23.1,23.1,0,0,1-.27-3.286c-.225-5.717-.63-17.061-9.679-19.177a.71.71,0,0,0-.54-1.125,12.927,12.927,0,0,0,3.421-6.8A1.023,1.023,0,0,0,49.989.54a2.285,2.285,0,0,0-1.8-.54,32.887,32.887,0,0,0-3.646.36A32.762,32.762,0,0,1,40.13.765,4.568,4.568,0,0,1,38.6.585a.632.632,0,0,0-.63.09.77.77,0,0,0-.315.585,10.778,10.778,0,0,0,3.331,7.023.717.717,0,0,0-.54.675.578.578,0,0,0,.18.45c-8.958,2.251-9.364,13.46-9.589,19.177a17.481,17.481,0,0,1-.27,3.286,1.848,1.848,0,0,0-1.576,1.846V34.3a1.9,1.9,0,0,0,1.891,1.891h25.84A1.9,1.9,0,0,0,58.812,34.3v-.585A1.8,1.8,0,0,0,57.282,31.872ZM39.23,2.161a28.306,28.306,0,0,0,5.537-.405,30.252,30.252,0,0,1,3.466-.36,2.031,2.031,0,0,1,.585.045c-.855,3.826-2.971,6.167-4.367,6.8H43.416A9.305,9.305,0,0,1,39.23,2.161ZM57.417,34.348a.451.451,0,0,1-.45.45H31.127a.451.451,0,0,1-.45-.45v-.585a.451.451,0,0,1,.45-.45c1.26,0,1.306-1.576,1.4-4.682.225-6.347.675-18.187,11.524-18.187s11.3,11.839,11.524,18.187c.135,3.106.18,4.682,1.4,4.682a.451.451,0,0,1,.45.45Z" transform="translate(-29.191 0)"/><path class="a" d="M142.038,161.731c-.083-.124-.124-.249-.207-.373s-.207-.207-.29-.331a2.274,2.274,0,0,0-.373-.29,3.634,3.634,0,0,0-.414-.249,2.218,2.218,0,0,0-.456-.207,4.864,4.864,0,0,1-.456-.207c-.083-.041-.166-.041-.249-.083l-.249-.124c-.083-.041-.124-.083-.207-.124l-.166-.166c-.041-.083-.083-.124-.124-.207s-.041-.166-.083-.249v-.249a.589.589,0,0,1,.083-.249.9.9,0,0,1,.124-.207.413.413,0,0,1,.207-.166l.249-.124a.705.705,0,0,1,.29-.041h.373a.705.705,0,0,1,.29.041c.083,0,.207.041.29.041a1.791,1.791,0,0,1,.207.041c.083.041.166.041.207.083l.29.083.041-.331.124-.911.041-.207-.207-.083a.451.451,0,0,0-.207-.041,1.8,1.8,0,0,0-.207-.041.526.526,0,0,0-.249-.041c-.083,0-.207-.041-.29-.041h-.083V155.6h-1.284v1.118l-.083.041a2.536,2.536,0,0,0-.5.207,1.489,1.489,0,0,0-.414.29,2.679,2.679,0,0,0-.331.373,4.516,4.516,0,0,0-.249.456,2.336,2.336,0,0,0-.166.5,2.549,2.549,0,0,0-.041.58,1.7,1.7,0,0,0,.041.456,2.019,2.019,0,0,0,.166.456l.249.373c.083.124.207.207.29.331.124.083.249.207.373.29s.29.166.414.249a4.044,4.044,0,0,0,.456.207c.166.083.331.124.5.207.083.041.166.041.249.083a.905.905,0,0,1,.207.124c.083.041.124.083.207.124l.166.166c.041.083.083.124.124.207a.525.525,0,0,1,.041.249v.249a.589.589,0,0,1-.083.249.729.729,0,0,1-.166.207.906.906,0,0,1-.207.166.589.589,0,0,1-.249.083.525.525,0,0,1-.249.041h-.414a.7.7,0,0,1-.29-.041c-.083,0-.207-.041-.29-.041-.124-.041-.249-.041-.373-.083l-.373-.124c-.041,0-.083-.041-.166-.083-.041-.041-.083-.041-.166-.083l-.331-.166-.041.373-.124.994-.041.207.166.083c.124.041.249.124.373.166s.249.083.414.124c.124.041.29.083.414.124.166.041.29.041.456.083h.083v1.077h1.243v-1.118h.083a2.877,2.877,0,0,0,.539-.207,2.79,2.79,0,0,0,.456-.29l.373-.373a1.608,1.608,0,0,0,.249-.456,2.053,2.053,0,0,0,.166-.539,2.363,2.363,0,0,0,.041-.538c0-.331-.041-.5-.041-.621A1.242,1.242,0,0,0,142.038,161.731Z" transform="translate(-124.816 -137.428)"/></g></svg>