<svg xmlns="http://www.w3.org/2000/svg" width="10.305" height="12.591" viewBox="0 0 10.305 12.591"><defs><style>.a{fill:#0b7b99;}</style></defs><g transform="translate(0 0)"><path class="a" d="M38.963,11.088a8.038,8.038,0,0,1-.094-1.143c-.078-1.989-.219-5.935-3.367-6.671a.247.247,0,0,0-.188-.392A4.5,4.5,0,0,0,36.5.517a.356.356,0,0,0-.078-.329A.8.8,0,0,0,35.8,0a11.441,11.441,0,0,0-1.269.125A11.4,11.4,0,0,1,33,.266,1.589,1.589,0,0,1,32.464.2a.22.22,0,0,0-.219.031.268.268,0,0,0-.11.2,3.749,3.749,0,0,0,1.159,2.443.249.249,0,0,0-.188.235.2.2,0,0,0,.063.157c-3.116.783-3.257,4.683-3.336,6.671a6.082,6.082,0,0,1-.094,1.143.643.643,0,0,0-.548.642v.2a.662.662,0,0,0,.658.658h8.989a.662.662,0,0,0,.658-.658v-.2A.627.627,0,0,0,38.963,11.088ZM32.683.752A9.847,9.847,0,0,0,34.61.611,10.524,10.524,0,0,1,35.815.485a.707.707,0,0,1,.2.016A3.454,3.454,0,0,1,34.5,2.866h-.36A3.237,3.237,0,0,1,32.683.752Zm6.327,11.2a.157.157,0,0,1-.157.157H29.864a.157.157,0,0,1-.157-.157v-.2a.157.157,0,0,1,.157-.157c.438,0,.454-.548.485-1.629.078-2.208.235-6.327,4.009-6.327S38.29,7.752,38.368,9.96c.047,1.081.063,1.629.485,1.629a.157.157,0,0,1,.157.157Z" transform="translate(-29.191 0)"/><path class="a" d="M138.877,157.733c-.029-.043-.043-.086-.072-.13s-.072-.072-.1-.115a.791.791,0,0,0-.13-.1,1.266,1.266,0,0,0-.144-.086.771.771,0,0,0-.159-.072,1.69,1.69,0,0,1-.159-.072c-.029-.014-.058-.014-.086-.029l-.086-.043c-.029-.014-.043-.029-.072-.043l-.058-.058c-.014-.029-.029-.043-.043-.072s-.014-.058-.029-.086v-.086a.2.2,0,0,1,.029-.086.315.315,0,0,1,.043-.072.144.144,0,0,1,.072-.058l.086-.043a.245.245,0,0,1,.1-.014h.13a.245.245,0,0,1,.1.014c.029,0,.072.014.1.014a.623.623,0,0,1,.072.014c.029.014.058.014.072.029l.1.029.014-.115.043-.317.014-.072-.072-.029a.157.157,0,0,0-.072-.014A.625.625,0,0,0,138.5,156a.183.183,0,0,0-.086-.014c-.029,0-.072-.014-.1-.014h-.029V155.6h-.447v.389l-.029.014a.882.882,0,0,0-.173.072.518.518,0,0,0-.144.1.933.933,0,0,0-.115.13,1.571,1.571,0,0,0-.086.159.813.813,0,0,0-.058.173.887.887,0,0,0-.014.2.591.591,0,0,0,.014.159.7.7,0,0,0,.058.159l.086.13c.029.043.072.072.1.115s.086.072.13.1.1.058.144.086a1.406,1.406,0,0,0,.159.072c.058.029.115.043.173.072.029.014.058.014.086.029a.315.315,0,0,1,.072.043c.029.014.043.029.072.043l.058.058c.014.029.029.043.043.072a.183.183,0,0,1,.014.086v.086a.2.2,0,0,1-.029.086.254.254,0,0,1-.058.072.315.315,0,0,1-.072.058.2.2,0,0,1-.086.029.183.183,0,0,1-.086.014h-.144a.245.245,0,0,1-.1-.014c-.029,0-.072-.014-.1-.014s-.086-.014-.13-.029l-.13-.043c-.014,0-.029-.014-.058-.029s-.029-.014-.058-.029l-.115-.058-.014.13-.043.346-.014.072.058.029c.043.014.086.043.13.058s.086.029.144.043.1.029.144.043.1.014.159.029h.029v.375h.432v-.389h.029a1,1,0,0,0,.187-.072.97.97,0,0,0,.159-.1l.13-.13a.559.559,0,0,0,.086-.159.714.714,0,0,0,.058-.187.822.822,0,0,0,.014-.187c0-.115-.014-.173-.014-.216A.432.432,0,0,0,138.877,157.733Z" transform="translate(-132.886 -149.278)"/></g></svg>