<?xml version="1.0" encoding="utf-8"?>
<!-- Generator: Adobe Illustrator 16.0.0, SVG Export Plug-In . SVG Version: 6.00 Build 0)  -->
<!DOCTYPE svg PUBLIC "-//W3C//DTD SVG 1.1//EN" "http://www.w3.org/Graphics/SVG/1.1/DTD/svg11.dtd">
<svg version="1.1" id="Layer_1" xmlns="http://www.w3.org/2000/svg" xmlns:xlink="http://www.w3.org/1999/xlink" x="0px" y="0px"
	 width="10.305px" height="12.59px" viewBox="0 0 10.305 12.59" enable-background="new 0 0 10.305 12.59" xml:space="preserve">
<g transform="translate(0 0)">
	<path fill="#FF690F" d="M9.772,11.088c-0.059-0.379-0.09-0.761-0.094-1.144C9.6,7.956,9.459,4.01,6.311,3.274
		c0.08-0.11,0.056-0.265-0.055-0.345C6.218,2.9,6.171,2.884,6.123,2.882C6.746,2.23,7.159,1.406,7.309,0.517
		c0.031-0.116,0.002-0.24-0.078-0.329C7.06,0.04,6.833-0.028,6.609,0C6.184,0.018,5.76,0.06,5.34,0.125
		C4.833,0.207,4.322,0.253,3.809,0.266C3.628,0.275,3.447,0.252,3.273,0.2C3.199,0.17,3.116,0.182,3.054,0.231
		c-0.064,0.047-0.104,0.12-0.11,0.2c0.069,0.93,0.482,1.801,1.159,2.443C3.994,2.901,3.918,2.998,3.915,3.109
		c-0.004,0.059,0.02,0.117,0.063,0.157C0.862,4.049,0.721,7.95,0.642,9.937c0.005,0.384-0.026,0.766-0.094,1.144
		C0.231,11.127-0.003,11.401,0,11.722v0.2c0.002,0.362,0.295,0.655,0.658,0.658h8.988c0.362-0.003,0.656-0.296,0.658-0.658v-0.2
		C10.312,11.407,10.084,11.135,9.772,11.088z M3.492,0.752c0.645,0.016,1.29-0.031,1.927-0.141C5.818,0.546,6.22,0.504,6.624,0.485
		c0.066-0.004,0.134,0.001,0.2,0.016C6.677,1.468,6.126,2.328,5.309,2.866H4.949C4.193,2.392,3.665,1.627,3.492,0.752z
		 M9.819,11.952c0,0.087-0.07,0.157-0.156,0.157l0,0H0.673c-0.087,0-0.157-0.07-0.157-0.157v-0.199c0-0.088,0.07-0.157,0.157-0.157
		c0.438,0,0.454-0.548,0.485-1.63c0.077-2.207,0.234-6.326,4.009-6.326c3.773,0,3.932,4.113,4.01,6.32
		c0.047,1.082,0.063,1.629,0.485,1.629c0.086,0,0.156,0.07,0.156,0.158l0,0V11.952z"/>
	<path fill="#FF690F" d="M5.991,8.456C5.962,8.413,5.948,8.37,5.919,8.325C5.89,8.281,5.847,8.252,5.819,8.209
		c-0.039-0.037-0.083-0.07-0.13-0.1C5.643,8.079,5.595,8.049,5.545,8.024c-0.05-0.029-0.104-0.055-0.159-0.072
		C5.332,7.93,5.279,7.907,5.227,7.879C5.198,7.866,5.169,7.866,5.141,7.851L5.055,7.808C5.026,7.793,5.012,7.779,4.983,7.765
		L4.925,7.708C4.911,7.678,4.896,7.665,4.882,7.635S4.868,7.577,4.853,7.549V7.463c0.003-0.031,0.013-0.061,0.029-0.086
		c0.011-0.026,0.025-0.051,0.043-0.072c0.017-0.027,0.042-0.047,0.072-0.059l0.086-0.043c0.032-0.012,0.065-0.016,0.1-0.014h0.13
		c0.034-0.002,0.068,0.002,0.101,0.014c0.028,0,0.071,0.014,0.1,0.014c0.024,0.004,0.049,0.009,0.072,0.015
		C5.615,7.247,5.643,7.247,5.657,7.26l0.1,0.029l0.014-0.115l0.043-0.316l0.015-0.072L5.756,6.757
		c-0.022-0.01-0.047-0.015-0.072-0.014C5.661,6.734,5.638,6.728,5.615,6.722C5.587,6.71,5.558,6.706,5.528,6.708
		c-0.028,0-0.071-0.014-0.1-0.014H5.399V6.322H4.952v0.389L4.923,6.725C4.863,6.743,4.805,6.767,4.75,6.797
		c-0.054,0.024-0.103,0.059-0.145,0.1c-0.042,0.039-0.08,0.084-0.114,0.13C4.459,7.079,4.431,7.131,4.405,7.186
		C4.379,7.241,4.36,7.299,4.347,7.359c-0.012,0.065-0.017,0.134-0.014,0.2C4.33,7.612,4.335,7.667,4.347,7.717
		c0.013,0.056,0.032,0.109,0.058,0.16l0.087,0.129c0.028,0.043,0.071,0.072,0.1,0.115s0.086,0.072,0.13,0.101s0.1,0.058,0.145,0.086
		C4.916,8.335,4.97,8.36,5.024,8.379c0.059,0.029,0.115,0.043,0.173,0.072c0.029,0.014,0.059,0.014,0.087,0.029
		c0.025,0.012,0.05,0.025,0.071,0.043c0.029,0.014,0.043,0.029,0.072,0.043l0.058,0.059c0.015,0.029,0.029,0.043,0.043,0.072
		c0.012,0.026,0.017,0.057,0.015,0.086V8.87C5.539,8.899,5.53,8.929,5.513,8.956C5.498,8.983,5.479,9.006,5.455,9.027
		C5.434,9.049,5.409,9.069,5.383,9.084C5.357,9.101,5.327,9.112,5.297,9.114C5.27,9.125,5.24,9.13,5.211,9.127H5.067
		c-0.033,0.003-0.067-0.002-0.1-0.014c-0.029,0-0.072-0.014-0.1-0.014c-0.028,0-0.086-0.014-0.131-0.029l-0.13-0.043
		c-0.014,0-0.028-0.014-0.058-0.029C4.52,8.984,4.52,8.985,4.491,8.97L4.376,8.913L4.362,9.042L4.319,9.388L4.305,9.459l0.058,0.029
		c0.043,0.014,0.087,0.043,0.131,0.059C4.537,9.562,4.579,9.577,4.637,9.59s0.1,0.029,0.144,0.043
		C4.825,9.647,4.881,9.647,4.94,9.663h0.029v0.375h0.432v-0.39H5.43C5.494,9.63,5.557,9.606,5.617,9.577
		c0.056-0.029,0.109-0.063,0.158-0.101l0.13-0.13c0.037-0.049,0.066-0.102,0.087-0.159C6.02,9.127,6.039,9.065,6.05,9
		c0.012-0.063,0.017-0.125,0.014-0.188c0-0.115-0.014-0.173-0.014-0.216C6.039,8.546,6.019,8.499,5.991,8.456z"/>
</g>
</svg>
