<?xml version="1.0" encoding="utf-8"?>
<!-- Generator: Adobe Illustrator 16.0.0, SVG Export Plug-In . SVG Version: 6.00 Build 0)  -->
<!DOCTYPE svg PUBLIC "-//W3C//DTD SVG 1.1//EN" "http://www.w3.org/Graphics/SVG/1.1/DTD/svg11.dtd">
<svg version="1.1" id="Layer_1" xmlns="http://www.w3.org/2000/svg" xmlns:xlink="http://www.w3.org/1999/xlink" x="0px" y="0px"
	 width="12.59px" height="12.59px" viewBox="0 0 12.59 12.59" enable-background="new 0 0 12.59 12.59" xml:space="preserve">
<path fill="#FF690F" d="M8.6,4C8.428,1.631,6.369-0.149,4,0.022s-4.149,2.231-3.978,4.6C0.177,6.752,1.871,8.446,4,8.6
	c0.172,2.369,2.231,4.149,4.6,3.978c2.369-0.173,4.149-2.231,3.978-4.601C12.422,5.848,10.729,4.154,8.6,4z M0.738,4.3
	C0.734,2.331,2.327,0.73,4.296,0.726C6.155,0.722,7.706,2.147,7.858,4C7,4.085,6.188,4.428,5.527,4.983L4.678,2.441
	C4.613,2.248,4.404,2.144,4.211,2.208c-0.11,0.037-0.196,0.123-0.233,0.233L2.8,5.982C2.73,6.174,2.83,6.385,3.021,6.455
	c0.192,0.069,0.403-0.03,0.473-0.222C3.496,6.227,3.498,6.221,3.5,6.215L3.678,5.68h1.19c-0.483,0.631-0.781,1.385-0.86,2.177
	C2.159,7.702,0.737,6.156,0.738,4.3z M4.738,4.939H3.922L4.328,3.72L4.738,4.939z M8.292,11.849c-1.97,0-3.566-1.597-3.566-3.565
	c0-1.97,1.597-3.567,3.566-3.567c1.969,0,3.565,1.597,3.565,3.567l0,0c0,1.971-1.599,3.569-3.569,3.569l0,0L8.292,11.849z"/>
<path fill="#FF690F" d="M7.674,6.51H6.688C6.483,6.511,6.319,6.678,6.32,6.881C6.321,7.084,6.485,7.249,6.688,7.25h0.6
	C7.27,8.026,6.977,8.77,6.46,9.35C6.299,9.476,6.271,9.708,6.396,9.87c0.126,0.16,0.358,0.189,0.52,0.063
	C6.918,9.931,6.92,9.93,6.922,9.928c1.111-0.891,1.125-2.963,1.125-3.051C8.045,6.674,7.879,6.509,7.674,6.51L7.674,6.51z"/>
<path fill="#FF690F" d="M9.836,7.497H9.418V6.485C9.417,6.281,9.25,6.116,9.045,6.117C8.843,6.118,8.679,6.282,8.678,6.485v3.551
	c0.001,0.205,0.168,0.369,0.371,0.369c0.203-0.002,0.367-0.166,0.369-0.369v-1.8h0.418c0.205,0,0.371-0.165,0.371-0.37
	C10.208,7.662,10.042,7.497,9.836,7.497z"/>
<path fill="#FF690F" d="M9.435,1.554c0.884,0,1.601,0.716,1.601,1.6l0,0c-0.002,0.205,0.163,0.371,0.367,0.372
	c0.205,0.001,0.371-0.164,0.372-0.368c0-0.001,0-0.002,0-0.004c-0.003-1.291-1.049-2.337-2.34-2.34c-0.204,0-0.37,0.166-0.37,0.37
	C9.065,1.388,9.231,1.554,9.435,1.554z"/>
<path fill="#FF690F" d="M3.157,11.038c-0.884,0-1.6-0.716-1.6-1.6l0,0c0-0.205-0.166-0.37-0.37-0.37s-0.37,0.165-0.37,0.37
	c0.002,1.293,1.05,2.341,2.343,2.342c0.204,0.002,0.371-0.164,0.372-0.367c0.001-0.205-0.164-0.371-0.368-0.373
	c-0.001,0-0.002,0-0.003,0L3.157,11.038z"/>
</svg>
