<svg xmlns="http://www.w3.org/2000/svg" width="36.194" height="36.194" viewBox="0 0 36.194 36.194"><defs><style>.a{fill:#0b7b99;}</style></defs><path class="a" d="M24.712,11.484A12.372,12.372,0,1,0,11.484,24.713,12.371,12.371,0,1,0,24.712,11.484Zm-22.591.887a10.252,10.252,0,0,1,20.467-.857,12.317,12.317,0,0,0-6.7,2.826L13.448,7.017a1.06,1.06,0,0,0-2.012,0L8.043,17.2a1.06,1.06,0,1,0,2.012.671l.512-1.537h3.42a12.306,12.306,0,0,0-2.473,6.259A10.255,10.255,0,0,1,2.121,12.371ZM13.61,14.209H11.274l1.168-3.5ZM23.823,34.073a10.25,10.25,0,1,1,10.25-10.25A10.262,10.262,0,0,1,23.823,34.073Z"/><path class="a" d="M260.9,265h-2.835a1.063,1.063,0,0,0,0,2.126h1.717c-.167,1.825-.761,4.749-2.382,6.045a1.063,1.063,0,1,0,1.328,1.66c3.2-2.558,3.234-8.516,3.234-8.769A1.063,1.063,0,0,0,260.9,265Z" transform="translate(-238.84 -246.286)"/><path class="a" d="M356.332,252.969h-1.205v-2.906a1.063,1.063,0,0,0-2.126,0V260.27a1.063,1.063,0,0,0,2.126,0V255.1h1.205a1.063,1.063,0,0,0,0-2.126Z" transform="translate(-328.055 -231.422)"/><path class="a" d="M370.063,35.126a4.613,4.613,0,0,1,4.607,4.607,1.063,1.063,0,1,0,2.126,0A6.741,6.741,0,0,0,370.063,33a1.063,1.063,0,0,0,0,2.126Z" transform="translate(-342.942 -30.661)"/><path class="a" d="M39.734,374.671a4.613,4.613,0,0,1-4.607-4.607,1.063,1.063,0,0,0-2.126,0,6.741,6.741,0,0,0,6.734,6.734,1.063,1.063,0,1,0,0-2.126Z" transform="translate(-30.661 -342.942)"/></svg>