<svg xmlns="http://www.w3.org/2000/svg" width="12.591" height="12.591" viewBox="0 0 12.591 12.591"><defs><style>.a{fill:#0b7b99;}</style></defs><path class="a" d="M8.6,4A4.3,4.3,0,1,0,4,8.6,4.3,4.3,0,1,0,8.6,4ZM.738,4.3a3.566,3.566,0,0,1,7.12-.3,4.285,4.285,0,0,0-2.331.983L4.678,2.441a.369.369,0,0,0-.7,0L2.8,5.982a.369.369,0,1,0,.7.233l.178-.535h1.19a4.281,4.281,0,0,0-.86,2.177A3.568,3.568,0,0,1,.738,4.3Zm4,.639H3.922l.406-1.219Zm3.553,6.91a3.566,3.566,0,1,1,3.566-3.566A3.57,3.57,0,0,1,8.287,11.853Z"/><path class="a" d="M258.356,265h-.986a.37.37,0,0,0,0,.74h.6a3.267,3.267,0,0,1-.828,2.1.37.37,0,1,0,.462.578c1.112-.89,1.125-2.963,1.125-3.05A.37.37,0,0,0,258.356,265Z" transform="translate(-250.682 -258.49)"/><path class="a" d="M354.159,250.381h-.419V249.37a.37.37,0,0,0-.74,0v3.551a.37.37,0,0,0,.74,0v-1.8h.419a.37.37,0,0,0,0-.74Z" transform="translate(-344.322 -242.885)"/><path class="a" d="M369.37,33.74a1.6,1.6,0,0,1,1.6,1.6.37.37,0,1,0,.74,0A2.345,2.345,0,0,0,369.37,33a.37.37,0,1,0,0,.74Z" transform="translate(-359.935 -32.186)"/><path class="a" d="M35.343,370.973a1.6,1.6,0,0,1-1.6-1.6.37.37,0,1,0-.74,0,2.345,2.345,0,0,0,2.343,2.342.37.37,0,1,0,0-.74Z" transform="translate(-32.186 -359.935)"/></svg>