<?xml version="1.0" encoding="utf-8"?>
<!-- Generator: Adobe Illustrator 16.0.0, SVG Export Plug-In . SVG Version: 6.00 Build 0)  -->
<!DOCTYPE svg PUBLIC "-//W3C//DTD SVG 1.1//EN" "http://www.w3.org/Graphics/SVG/1.1/DTD/svg11.dtd">
<svg version="1.1" id="Layer_1" xmlns="http://www.w3.org/2000/svg" xmlns:xlink="http://www.w3.org/1999/xlink" x="0px" y="0px"
	 width="12.59px" height="12.59px" viewBox="0 0 12.59 12.59" enable-background="new 0 0 12.59 12.59" xml:space="preserve">
<path fill="#FF690F" d="M12.347,4.347l-0.626-0.626c-0.206-0.206-0.504-0.29-0.787-0.221c0.068-0.283-0.016-0.581-0.221-0.787
	L9.355,1.354C9.231,1.231,9.073,1.15,8.901,1.122c-0.027-0.17-0.108-0.328-0.23-0.451L8.245,0.244c-0.325-0.326-0.854-0.326-1.18,0
	c0,0,0,0,0,0l-4.27,4.27c-0.326,0.325-0.326,0.854,0,1.179c0,0,0,0,0,0L3.701,6.6c0.154,0.158,0.15,0.412-0.008,0.565
	C3.675,7.184,3.655,7.2,3.633,7.213c-1.078,0.614-2.105,1.314-3.07,2.095c-0.751,0.751-0.751,1.97,0,2.721s1.97,0.751,2.721,0l0,0
	c0.779-0.966,1.478-1.994,2.09-3.073C5.495,8.77,5.743,8.717,5.928,8.838C5.949,8.852,5.97,8.87,5.988,8.887l0.913,0.912
	c0.326,0.326,0.854,0.326,1.18,0.002c0-0.001,0-0.001,0-0.002l4.271-4.268c0.325-0.326,0.326-0.854,0.001-1.18
	C12.35,4.35,12.348,4.349,12.347,4.347z M7.487,9.208L6.578,8.299C6.097,7.82,5.317,7.821,4.837,8.301
	C4.774,8.365,4.719,8.434,4.671,8.508c-0.766,1.201-1.73,2.686-1.977,2.933c-0.425,0.426-1.115,0.426-1.541,0
	c-0.425-0.425-0.425-1.115,0-1.541C1.401,9.651,2.884,8.686,4.085,7.92c0.573-0.364,0.742-1.125,0.376-1.698
	C4.414,6.147,4.357,6.077,4.294,6.014L3.385,5.1l0.663-0.663l0,0l4.1,4.101L7.487,9.208z M8.741,7.954L8.741,7.954l-4.1-4.101
	l3.014-3.019L8.081,1.26L7.601,2.317C7.586,2.353,7.594,2.395,7.62,2.423l0,0C7.649,2.45,7.691,2.457,7.727,2.441l1.031-0.5
	L10.124,3.3L8.307,6.009c-0.023,0.039-0.019,0.087,0.012,0.12l0,0c0.033,0.03,0.082,0.035,0.12,0.011l2.692-1.83l0.625,0.626
	L8.741,7.954z"/>
<ellipse fill="#FF690F" cx="2.033" cy="10.557" rx="0.486" ry="0.486"/>
</svg>
