<svg xmlns="http://www.w3.org/2000/svg" width="12.591" height="12.591" viewBox="0 0 12.591 12.591"><defs><style>.a{fill:#0b7b99;}</style></defs><path class="a" d="M12.346,4.347l-.626-.626a.835.835,0,0,0-.787-.221.835.835,0,0,0-.221-.787L9.354,1.354A.833.833,0,0,0,8.9,1.122.833.833,0,0,0,8.67.671L8.244.244a.834.834,0,0,0-1.18,0l-4.27,4.27a.834.834,0,0,0,0,1.18L3.7,6.6a.4.4,0,0,1-.068.614A22.885,22.885,0,0,0,.562,9.308a1.924,1.924,0,0,0,2.721,2.721A22.884,22.884,0,0,0,5.373,8.955a.4.4,0,0,1,.614-.068L6.9,9.8a.834.834,0,0,0,1.18,0l4.27-4.269A.834.834,0,0,0,12.346,4.347Zm-4.86,4.86L6.577,8.3a1.231,1.231,0,0,0-1.907.209c-.766,1.2-1.73,2.685-1.977,2.932A1.089,1.089,0,0,1,1.152,9.9C1.4,9.651,2.883,8.686,4.084,7.921a1.23,1.23,0,0,0,.209-1.907L3.384,5.1l.663-.663h0l4.1,4.1ZM8.74,7.953h0l-4.1-4.1L7.654.834l.426.426L7.6,2.317a.1.1,0,0,0,.019.106h0a.1.1,0,0,0,.107.018l1.032-.5L10.122,3.3,8.306,6.009a.1.1,0,0,0,.012.12h0a.1.1,0,0,0,.12.011l2.692-1.83.626.626Z" transform="translate(0.001)"/><ellipse class="a" cx="0.486" cy="0.486" rx="0.486" ry="0.486" transform="translate(1.547 10.071)"/></svg>