<svg xmlns="http://www.w3.org/2000/svg" width="36.194" height="36.194" viewBox="0 0 36.194 36.194"><defs><style>.a{fill:#0b7b99;}</style></defs><path class="a" d="M35.491,12.5l-1.8-1.8a2.4,2.4,0,0,0-2.263-.635A2.4,2.4,0,0,0,30.793,7.8l-3.9-3.9a2.4,2.4,0,0,0-1.3-.669,2.4,2.4,0,0,0-.669-1.3L23.7.7a2.4,2.4,0,0,0-3.392,0L8.033,12.976a2.4,2.4,0,0,0,0,3.392l2.614,2.614a1.137,1.137,0,0,1-.2,1.764c-7.791,4.966-8.523,5.7-8.835,6.011a5.53,5.53,0,0,0,7.82,7.82c.313-.313,1.044-1.044,6.011-8.835a1.141,1.141,0,0,1,1.764-.2l2.614,2.614a2.4,2.4,0,0,0,3.392,0L35.491,15.887A2.4,2.4,0,0,0,35.491,12.5ZM21.522,26.464,18.908,23.85a3.539,3.539,0,0,0-5.483.6c-2.2,3.453-4.974,7.719-5.684,8.429a3.131,3.131,0,0,1-4.428-4.428c.71-.71,4.975-3.483,8.429-5.684a3.536,3.536,0,0,0,.6-5.483L9.729,14.672l1.906-1.906h0L23.428,24.558Zm3.6-3.6h0L13.333,11.068,22,2.4l1.225,1.225L21.859,6.66a.273.273,0,0,0,.056.3l0,0a.273.273,0,0,0,.309.05l2.967-1.429,3.9,3.9-5.22,7.78a.273.273,0,0,0,.034.345h0a.273.273,0,0,0,.346.032l7.738-5.259,1.8,1.8Z" transform="translate(0.001 0)"/><ellipse class="a" cx="1.398" cy="1.398" rx="1.398" ry="1.398" transform="translate(4.447 28.95)"/></svg>