<?xml version="1.0" encoding="utf-8"?>
<!-- Generator: Adobe Illustrator 16.0.0, SVG Export Plug-In . SVG Version: 6.00 Build 0)  -->
<!DOCTYPE svg PUBLIC "-//W3C//DTD SVG 1.1//EN" "http://www.w3.org/Graphics/SVG/1.1/DTD/svg11.dtd">
<svg version="1.1" id="Layer_1" xmlns="http://www.w3.org/2000/svg" xmlns:xlink="http://www.w3.org/1999/xlink" x="0px" y="0px"
	 width="8.754px" height="12.59px" viewBox="0 0 8.754 12.59" enable-background="new 0 0 8.754 12.59" xml:space="preserve">
<path fill="#FF690F" d="M8.6,10.583L6.032,5.487V0.738h0.334C6.561,0.728,6.709,0.563,6.7,0.369C6.709,0.175,6.561,0.01,6.366,0
	H2.353C2.159,0.01,2.01,0.175,2.019,0.369C2.01,0.563,2.159,0.728,2.353,0.738h0.334v4.75l-2.535,5.101
	c-0.359,0.656-0.117,1.479,0.54,1.838c0.165,0.091,0.348,0.146,0.536,0.162h6.3c0.746-0.063,1.3-0.72,1.236-1.466
	C8.748,10.932,8.691,10.749,8.6,10.583z M7.525,11.853H1.226c-0.339-0.028-0.591-0.326-0.563-0.665
	c0.007-0.086,0.032-0.17,0.074-0.245c2.785-5.6,2.617-5.225,2.617-5.361V0.738h2.009v0.787H5.029C4.835,1.535,4.686,1.7,4.695,1.894
	c-0.009,0.194,0.14,0.359,0.334,0.369h0.334V3h-1C4.159,3.021,4.011,3.204,4.032,3.407C4.051,3.582,4.188,3.72,4.363,3.738h1v0.738
	H5.029C4.825,4.497,4.677,4.68,4.698,4.883c0.019,0.175,0.156,0.313,0.331,0.331h0.334v0.369c0,0.137-0.17-0.24,2.65,5.358
	c0.164,0.298,0.058,0.673-0.24,0.838C7.697,11.821,7.613,11.846,7.525,11.853L7.525,11.853z"/>
</svg>
