<svg xmlns="http://www.w3.org/2000/svg" width="25.164" height="36.194" viewBox="0 0 25.164 36.194"><defs><style>.a{fill:#0b7b99;}</style></defs><path class="a" d="M25.215,30.418,17.839,15.772V2.121H18.8a1.015,1.015,0,0,0,.961-1.06A1.015,1.015,0,0,0,18.8,0H7.264A1.014,1.014,0,0,0,6.3,1.06a1.014,1.014,0,0,0,.961,1.06h.961V15.775L.939,30.437c-1.287,2.59.41,5.757,3.091,5.757h18.1c2.686,0,4.388-3.182,3.081-5.776Zm-3.081,3.655H4.03a1.771,1.771,0,0,1-1.4-2.617c8-16.107,7.523-15.02,7.523-15.409V2.121h5.768V4.383h-.961a1.014,1.014,0,0,0-.961,1.06,1.014,1.014,0,0,0,.961,1.06h.961V8.624H13.032a1.065,1.065,0,0,0,0,2.121h2.884v2.121h-.961a1.065,1.065,0,0,0,0,2.121h.961v1.06c0,.394-.485-.689,7.618,15.4a1.772,1.772,0,0,1-1.4,2.625Zm0,0" transform="translate(-0.5)"/></svg>