<svg xmlns="http://www.w3.org/2000/svg" width="8.754" height="12.591" viewBox="0 0 8.754 12.591"><defs><style>.a{fill:#0b7b99;}</style></defs><path class="a" d="M9.1,10.582,6.532,5.487V.738h.334A.353.353,0,0,0,7.2.369.353.353,0,0,0,6.866,0H2.853a.353.353,0,0,0-.334.369.353.353,0,0,0,.334.369h.334v4.75l-2.535,5.1a1.355,1.355,0,0,0,1.075,2h6.3A1.356,1.356,0,0,0,9.1,10.582ZM8.026,11.853h-6.3a.616.616,0,0,1-.489-.91c2.785-5.6,2.617-5.225,2.617-5.361V.738H5.863v.787H5.529a.353.353,0,0,0-.334.369.353.353,0,0,0,.334.369h.334V3h-1a.371.371,0,0,0,0,.738h1v.738H5.529a.371.371,0,0,0,0,.738h.334v.369c0,.137-.169-.24,2.65,5.358a.616.616,0,0,1-.487.913Zm0,0" transform="translate(-0.5)"/></svg>