<svg xmlns="http://www.w3.org/2000/svg" width="20" height="20" viewBox="0 0 20 20"><defs><style>.a{fill:#59c36a;}.b{fill:#00a66c;}.c{fill:#ffda2d;}.d{fill:#4086f4;}.e{fill:#4175df;}.f{fill:#ff641a;}.g{fill:#f03800;}</style></defs><g transform="translate(0 0)"><path class="a" d="M51.412,301.37A9.889,9.889,0,0,1,36.4,298.827l.649-2.993,2.878-.534a5.31,5.31,0,0,0,5.051,3.738,5.2,5.2,0,0,0,3.094-1.008l2.766.422Z" transform="translate(-34.978 -283.765)"/><path class="b" d="M262.434,368.54l-.574-2.918-2.766-.422A5.2,5.2,0,0,1,256,366.208v4.727A9.985,9.985,0,0,0,262.434,368.54Z" transform="translate(-246 -350.934)"/><g transform="translate(0 4.937)"><path class="c" d="M4.727,131.462A5.461,5.461,0,0,0,4.949,133l-3.527,3.527a9.723,9.723,0,0,1,0-10.125l2.831.487.7,3.04A5.46,5.46,0,0,0,4.727,131.462Z" transform="translate(0 -126.4)"/></g><path class="d" d="M251.586,198.344a9.984,9.984,0,0,1-3.566,7.605l-3.34-3.34a5.185,5.185,0,0,0,1.629-1.922h-4.723A.58.58,0,0,1,241,200.1v-3.516a.58.58,0,0,1,.586-.586h9.25a.579.579,0,0,1,.574.48A9.936,9.936,0,0,1,251.586,198.344Z" transform="translate(-231.586 -188.344)"/><path class="e" d="M260.723,200.687a5.186,5.186,0,0,1-1.629,1.922l3.34,3.34a9.9,9.9,0,0,0,3.391-9.469.579.579,0,0,0-.574-.48H256v4.687Z" transform="translate(-246 -188.344)"/><path class="f" d="M51.576,2.793a.591.591,0,0,1-.164.434L48.9,5.723a.574.574,0,0,1-.762.059,5.242,5.242,0,0,0-3.164-1.055,5.31,5.31,0,0,0-5.051,3.738L36.4,4.937A9.883,9.883,0,0,1,51.365,2.359a.616.616,0,0,1,.211.434Z" transform="translate(-34.978)"/><path class="g" d="M259.164,5.781a.574.574,0,0,0,.762-.059l2.508-2.5a.591.591,0,0,0,.164-.434.616.616,0,0,0-.211-.434A9.97,9.97,0,0,0,256,0V4.727A5.242,5.242,0,0,1,259.164,5.781Z" transform="translate(-246 0)"/></g></svg>