<svg xmlns="http://www.w3.org/2000/svg" width="45" height="45" viewBox="0 0 45 45"><defs><style>.a{fill:#f8f8f8;}.b{fill:#0b7b99;}</style></defs><g transform="translate(14905 -667)"><circle class="a" cx="22.5" cy="22.5" r="22.5" transform="translate(-14905 667)"/><path class="b" d="M25.528,7.25a3.141,3.141,0,0,0-2.21-2.225C21.368,4.5,13.55,4.5,13.55,4.5s-7.818,0-9.767.526A3.141,3.141,0,0,0,1.572,7.25a32.953,32.953,0,0,0-.522,6.056,32.953,32.953,0,0,0,.522,6.056,3.094,3.094,0,0,0,2.21,2.189c1.95.526,9.767.526,9.767.526s7.818,0,9.767-.526a3.094,3.094,0,0,0,2.21-2.189,32.953,32.953,0,0,0,.522-6.056,32.953,32.953,0,0,0-.522-6.056ZM10.993,17.024V9.59l6.534,3.717-6.534,3.717Z" transform="translate(-14896.05 676.5)"/></g></svg>