<svg xmlns="http://www.w3.org/2000/svg" width="40" height="40" viewBox="0 0 40 40"><defs><style>.a{fill:#ededed;}.b{fill:#fe0000;}</style></defs><g transform="translate(0 0.407)"><circle class="a" cx="20" cy="20" r="20" transform="translate(0 -0.407)"/><g transform="translate(7.334 2.802)"><path class="b" d="M98.185,46.258c-.077.134-.173.2-.22.2-.1,0-.153-.058-.221-.2l-1.7-3.27V48.7a.214.214,0,0,1-.24.211.219.219,0,0,1-.24-.211V42.135a.214.214,0,0,1,.24-.23c.163,0,.316.23.4.393l1.755,3.433L99.729,42.3c.086-.163.23-.393.4-.393a.214.214,0,0,1,.24.23V48.7a.219.219,0,0,1-.24.211.214.214,0,0,1-.24-.211V43Z" transform="translate(-95.568 -41.57)"/><path class="b" d="M177.425,75.273v1.112a1.759,1.759,0,1,1-3.519,0V75.273a1.759,1.759,0,0,1,3.519,0Zm-.47,0a1.29,1.29,0,1,0-2.579,0v1.112a1.339,1.339,0,0,0,1.285,1.333,1.355,1.355,0,0,0,1.294-1.333Z" transform="translate(-167.894 -70.757)"/><path class="b" d="M234.347,77.89a.233.233,0,0,1-.24.211.224.224,0,0,1-.23-.211V73.767c0-.115.1-.192.23-.192a.209.209,0,0,1,.23.192v.479a1.43,1.43,0,0,1,1.285-.729,1.748,1.748,0,0,1,1.716,1.755V77.89a.219.219,0,0,1-.24.211.211.211,0,0,1-.23-.211V75.273a1.349,1.349,0,0,0-1.285-1.314,1.258,1.258,0,0,0-1.237,1.314V77.89Z" transform="translate(-223.263 -70.757)"/><path class="b" d="M296.069,37.735v6.932a.224.224,0,0,1-.23.211.231.231,0,0,1-.23-.211v-.46a1.508,1.508,0,0,1-1.3.729,1.8,1.8,0,0,1-1.707-1.774V42.05a1.75,1.75,0,0,1,1.726-1.755,1.437,1.437,0,0,1,1.275.729V37.735a.219.219,0,0,1,.24-.2A.21.21,0,0,1,296.069,37.735Zm-3,5.427a1.281,1.281,0,0,0,2.531.326V42.05a1.265,1.265,0,0,0-1.246-1.314,1.342,1.342,0,0,0-1.285,1.314v1.112Z" transform="translate(-277.478 -37.534)"/><path class="b" d="M353.419,75.358v2.531a.218.218,0,0,1-.23.211.224.224,0,0,1-.23-.211v-.46a1.919,1.919,0,0,1-1.438.729,1.2,1.2,0,0,1-1.323-1.266c0-1.026.9-1.285,2.234-1.285h.518v-.249a1.251,1.251,0,0,0-1.208-1.41,2.634,2.634,0,0,0-1.007.268c-.134,0-.211-.163-.211-.259,0-.211.642-.441,1.237-.441C352.987,73.517,353.419,74.409,353.419,75.358Zm-.47.633h-.47c-.94,0-1.812.086-1.812.882a.821.821,0,0,0,.92.863c.671,0,1.362-.614,1.362-1.036v-.71Z" transform="translate(-330.657 -70.756)"/><path class="b" d="M401.2,73.7a.226.226,0,0,1-.019-.077.273.273,0,0,1,.278-.23.188.188,0,0,1,.182.125l1.352,3.692,1.314-3.692a.207.207,0,0,1,.182-.125.269.269,0,0,1,.268.23.211.211,0,0,1-.01.077l-1.515,4.133c-.364.988-.863,2.407-1.822,2.407a.206.206,0,0,1-.221-.22c0-.115.048-.22.173-.22.642,0,1.1-1.016,1.39-1.966Z" transform="translate(-377.723 -70.64)"/></g><path d="M120.912,223.022a.809.809,0,0,0-.763.509L117.8,227.41a1.977,1.977,0,0,0-.381.827.712.712,0,0,0,.7.731.639.639,0,0,0,.573-.413l1.335-2.289v17.222q.778.35,1.59.631V223.69A.641.641,0,0,0,120.912,223.022Z" transform="translate(-108.404 -205.985)"/><path d="M234,223.022c-3.624,0-6.391,1.812-6.391,6.677v10.079c0,2.639.815,4.38,2.139,5.42h.04a19.682,19.682,0,0,0,3.467-.305c-2.566-.254-4.056-1.886-4.056-5.114V229.7c0-3.529,1.78-5.15,4.8-5.15s4.833,1.621,4.833,5.15v10.079a5.483,5.483,0,0,1-1.172,3.778,19.538,19.538,0,0,0,2.459-1.293,9.448,9.448,0,0,0,.3-2.486V229.7C240.424,224.834,237.594,223.022,234,223.022Z" transform="translate(-210.143 -205.985)"/></g></svg>