<svg xmlns="http://www.w3.org/2000/svg" width="45" height="45" viewBox="0 0 45 45"><defs><style>.a{fill:#f8f8f8;}.b{fill:#0b7b99;}</style></defs><g transform="translate(14993 -667)"><circle class="a" cx="22.5" cy="22.5" r="22.5" transform="translate(-14993 667)"/><path class="b" d="M4.924,22H.363V7.312H4.924ZM2.641,5.309A2.654,2.654,0,1,1,5.283,2.642,2.664,2.664,0,0,1,2.641,5.309ZM22,22H17.444V14.85c0-1.7-.034-3.889-2.371-3.889-2.371,0-2.735,1.851-2.735,3.767V22H7.782V7.312h4.374v2h.064a4.793,4.793,0,0,1,4.316-2.372c4.616,0,5.465,3.04,5.465,6.988V22Z" transform="translate(-14981 678.999)"/></g></svg>