<svg xmlns="http://www.w3.org/2000/svg" width="570" height="353.413" viewBox="0 0 570 353.413"><defs><style>.a{fill:#fff;}.b,.c{fill:#0b7b99;}.c{opacity:0.5;}.d{fill:#ff690f;}</style></defs><g transform="translate(-536 -233)"><g transform="translate(-35.533 -268.937)"><circle class="b" cx="2.522" cy="2.522" r="2.522" transform="translate(834.197 530.147)"/><circle class="c" cx="1.081" cy="1.081" r="1.081" transform="translate(879.371 567.522)"/><circle class="c" cx="1.081" cy="1.081" r="1.081" transform="translate(831.533 539.182)"/><circle class="c" cx="1.081" cy="1.081" r="1.081" transform="translate(831.533 567.522)"/><circle class="c" cx="1.081" cy="1.081" r="1.081" transform="translate(838.108 576.025)"/><circle class="c" cx="1.081" cy="1.081" r="1.081" transform="translate(879.364 538.045)"/><circle class="c" cx="1.081" cy="1.081" r="1.081" transform="translate(871.549 527.937)"/><path class="d" d="M862.654,545.568l-9.3,9.3-3.064-3.064a2.721,2.721,0,0,0-3.848,3.848l6.912,6.911L866.5,549.416a2.721,2.721,0,0,0-3.848-3.848Z"/><path class="b" d="M856.472,530.317A22.786,22.786,0,1,0,879.258,553.1,22.811,22.811,0,0,0,856.472,530.317Zm0,40.131A17.345,17.345,0,1,1,873.817,553.1,17.365,17.365,0,0,1,856.472,570.448Z"/><circle class="b" cx="2.522" cy="2.522" r="2.522" transform="translate(872.626 574.018)"/></g></g></svg>