<svg xmlns="http://www.w3.org/2000/svg" width="36.875" height="40" viewBox="0 0 36.875 40"><defs><style>.a{fill:#1e73be;}.b{fill:#fff;}</style></defs><g transform="translate(-95.492 -113.088)"><path class="a" d="M116.838,153.088l-21.346-4.377V117.465l21.346-4.377Z" transform="translate(0)"/><path class="b" d="M149.963,225.69a7.944,7.944,0,0,1,.066-15.879c4.514,0,7.586,4.027,7.586,7.984A7.773,7.773,0,0,1,149.963,225.69Zm-4.543-7.939c0,2.791,1.75,5.249,4.565,5.249s4.565-2.524,4.565-5.249c0-2.6-1.635-5.227-4.565-5.227C147.094,212.524,145.42,215.057,145.42,217.75Z" transform="translate(-41.209 -84.979)"/><g transform="translate(118.44 120.543)"><path class="a" d="M296.46,187.135H282.533v14.892l13.927-11.7Z" transform="translate(-282.533 -187.135)"/><path class="a" d="M282.533,226.467v8.358H296.46V214.77Z" transform="translate(-282.533 -209.736)"/></g></g></svg>