<svg xmlns="http://www.w3.org/2000/svg" xmlns:xlink="http://www.w3.org/1999/xlink" width="40.378" height="40" viewBox="0 0 40.378 40"><defs><style>.a{fill:none;}.b{fill:#e3e7ea;}.c{clip-path:url(#a);}.d{fill:#babac0;}.e{fill:#4086f4;}.f{fill:#4175df;}.g{fill:#fff5f5;}</style><clipPath id="a"><rect class="a" width="40.378" height="39.365"/></clipPath></defs><g transform="translate(-348.417 -348)"><path class="b" d="M405.716,359.47H372.737a1.155,1.155,0,0,1-1.178-1.132V351.4a3.471,3.471,0,0,1,3.534-3.4H403.36a3.47,3.47,0,0,1,3.533,3.4v6.942a1.155,1.155,0,0,1-1.178,1.132Zm0,0" transform="translate(-20.907)"/><g transform="translate(348.417 348.635)"><g class="c" transform="translate(0 0)"><path class="d" d="M554.372,348H540.309v11.882h16.406a1.171,1.171,0,0,0,1.172-1.172v-7.192A3.52,3.52,0,0,0,554.372,348Zm0,0" transform="translate(-520.417 -348.658)"/><path class="e" d="M350.687,454.743v0l-2.332-11.113a3.6,3.6,0,0,1,.774-2.885,3.532,3.532,0,0,1,2.7-1.243h32.906a3.5,3.5,0,0,1,3.469,4.08l-2.332,11.166,2.332,11.113a3.6,3.6,0,0,1-.774,2.885,3.532,3.532,0,0,1-2.7,1.243H351.825a3.5,3.5,0,0,1-3.469-4.08l2.331-11.163Zm0,0" transform="translate(-348.418 -430.621)"/><path class="f" d="M350.688,454.74v0H385.87L388.2,443.58a3.5,3.5,0,0,0-3.469-4.08H351.825a3.532,3.532,0,0,0-2.7,1.243,3.6,3.6,0,0,0-.774,2.885Zm0,0" transform="translate(-348.418 -430.621)"/></g></g><path class="g" d="M418.514,394.132A1.132,1.132,0,1,1,417.382,393a1.132,1.132,0,0,1,1.132,1.132Zm0,0" transform="translate(-60.849 -40.472)"/><path class="b" d="M643.514,394.132A1.132,1.132,0,1,1,642.382,393a1.132,1.132,0,0,1,1.132,1.132Zm0,0" transform="translate(-262.362 -40.472)"/><path class="g" d="M456.256,522.846a4.535,4.535,0,0,1-4.269-3.019,1.131,1.131,0,1,1,2.133-.754,2.264,2.264,0,1,0,2.136-3.019h-1.407a1.132,1.132,0,0,1,0-2.264h1.407a2.264,2.264,0,1,0-2.136-3.019,1.131,1.131,0,1,1-2.133-.754,4.527,4.527,0,1,1,7.26,4.9,4.525,4.525,0,0,1-2.991,7.923Zm0,0" transform="translate(-92.712 -142.044)"/><path class="b" d="M452.676,511.462a1.13,1.13,0,0,0,1.443-.69,2.264,2.264,0,1,1,2.136,3.019h-1.407a1.132,1.132,0,0,0-1.132,1.132h5.53a4.527,4.527,0,1,0-7.26-4.9,1.13,1.13,0,0,0,.69,1.444Zm0,0" transform="translate(-92.712 -142.292)"/><path class="g" d="M567.024,522.848a1.131,1.131,0,0,1-1.132-1.132V510.248l-1.636,1.091A1.132,1.132,0,0,1,563,509.456l3.4-2.264a1.132,1.132,0,0,1,1.76.942v13.583a1.131,1.131,0,0,1-1.132,1.132Zm0,0" transform="translate(-191.747 -142.046)"/><path class="b" d="M564.256,511.339l1.636-1.091v4.676h2.264v-6.791a1.132,1.132,0,0,0-1.76-.942l-3.4,2.264a1.132,1.132,0,0,0,1.256,1.883Zm0,0" transform="translate(-191.747 -142.294)"/></g></svg>