<?xml version="1.0" encoding="utf-8"?>
<!-- Generator: Adobe Illustrator 16.0.0, SVG Export Plug-In . SVG Version: 6.00 Build 0)  -->
<!DOCTYPE svg PUBLIC "-//W3C//DTD SVG 1.1//EN" "http://www.w3.org/Graphics/SVG/1.1/DTD/svg11.dtd">
<svg version="1.1" id="Layer_1" xmlns="http://www.w3.org/2000/svg" xmlns:xlink="http://www.w3.org/1999/xlink" x="0px" y="0px"
	 width="11.816px" height="12.59px" viewBox="0 0 11.816 12.59" enable-background="new 0 0 11.816 12.59" xml:space="preserve">
<path fill="#FF690F" d="M6.397,9.14H4.069c-0.112,0-0.203,0.091-0.203,0.204c0,0.112,0.091,0.203,0.203,0.203h2.328
	c0.113,0,0.204-0.091,0.204-0.203C6.601,9.231,6.51,9.14,6.397,9.14z"/>
<path fill="#FF690F" d="M2.627,10.943c0,0.11,0.089,0.2,0.2,0.2l0,0h1.139c0.112,0,0.204-0.092,0.204-0.204
	s-0.092-0.204-0.204-0.204H2.827c-0.11,0-0.2,0.09-0.2,0.2C2.627,10.938,2.627,10.94,2.627,10.943z"/>
<path fill="#FF690F" d="M6.337,10.943c0,0.11,0.09,0.2,0.2,0.2l0,0h1.139c0.112,0,0.204-0.092,0.204-0.204s-0.092-0.204-0.204-0.204
	H6.537c-0.11,0-0.2,0.09-0.2,0.2C6.337,10.938,6.337,10.94,6.337,10.943z"/>
<path fill="#FF690F" d="M5.269,10.739c-0.112,0-0.204,0.092-0.204,0.204s0.092,0.204,0.204,0.204l0,0
	c0.113,0,0.204-0.092,0.204-0.204S5.382,10.739,5.269,10.739z"/>
<path fill="#FF690F" d="M0.204,4.033c0.11,0,0.199-0.09,0.199-0.2l0,0c0-0.113-0.091-0.204-0.203-0.204
	c-0.113,0-0.204,0.091-0.204,0.204l0,0c0,0.11,0.089,0.2,0.199,0.2C0.198,4.033,0.201,4.033,0.204,4.033z"/>
<path fill="#FF690F" d="M11.525,9.77l-1.111-1.111V2.386c0-0.008,0-0.016,0-0.024v-0.01V2.339V2.327V2.316V2.304v-0.01V2.282V2.273
	l-0.006-0.011l-0.007-0.01l-0.006-0.01l-0.007-0.01l-0.03-0.005l0,0L8.509,0.086V0.081L8.493,0.069L8.485,0.062l-0.012-0.01
	L8.466,0.047L8.453,0.038H8.445L8.43,0.025H8.423l-0.019-0.01H8.398L8.38,0.007H8.374L8.358,0H1.107C0.495,0.001,0,0.497,0,1.108
	v1.631c0,0.138,0.111,0.25,0.25,0.25c0.138,0,0.25-0.112,0.25-0.25V1.108C0.503,0.774,0.773,0.503,1.107,0.5h6.968v1.6
	c0,0.299,0.243,0.542,0.543,0.542h1.3v5.521L9.373,7.618l0,0l0,0L8.198,6.443C9.045,4.83,8.424,2.834,6.811,1.987
	C5.197,1.14,3.201,1.761,2.355,3.375C1.701,4.619,1.907,6.14,2.868,7.165C2.879,7.18,2.893,7.194,2.907,7.206
	C3.92,8.258,5.506,8.517,6.801,7.84l1.167,1.168l0,0l0,0l1.941,1.941v0.524c0,0.338-0.274,0.612-0.612,0.612h-8.2
	c-0.338,0-0.612-0.274-0.612-0.612V4.947c0-0.138-0.111-0.25-0.25-0.25c-0.138,0-0.25,0.112-0.25,0.25v6.536
	c0.001,0.611,0.496,1.107,1.107,1.107h8.2c0.611,0,1.106-0.496,1.106-1.107v-0.1c0.126,0.064,0.265,0.1,0.406,0.1
	c0.561-0.018,1-0.487,0.981-1.047c-0.008-0.248-0.106-0.482-0.275-0.663L11.525,9.77z M8.569,2.092V0.914l1.057,1.225H8.617
	C8.591,2.139,8.57,2.118,8.569,2.092z M5.277,2.118c1.547,0,2.8,1.254,2.8,2.801C8.075,5.412,7.946,5.896,7.698,6.323
	c-0.018,0.02-0.031,0.043-0.041,0.068C7.609,6.47,7.556,6.546,7.5,6.619C7.207,6.079,6.732,5.661,6.158,5.44
	c0.633-0.508,0.734-1.434,0.227-2.068C5.876,2.738,4.95,2.637,4.317,3.145C3.683,3.654,3.581,4.58,4.09,5.213
	c0.067,0.084,0.144,0.16,0.227,0.227C3.765,5.652,3.303,6.047,3.008,6.56C2.101,5.308,2.381,3.557,3.634,2.65
	C4.112,2.304,4.687,2.118,5.277,2.118L5.277,2.118z M4.258,4.294C4.257,3.755,4.694,3.317,5.233,3.317S6.209,3.753,6.21,4.292
	c0,0.539-0.437,0.977-0.976,0.977c0,0,0,0-0.001,0C4.696,5.269,4.259,4.833,4.258,4.294z M3.358,6.958
	C3.845,5.92,5.081,5.474,6.119,5.961c0.456,0.214,0.818,0.586,1.02,1.047C7.018,7.116,6.887,7.214,6.748,7.299
	C6.723,7.31,6.7,7.324,6.68,7.34C5.61,7.963,4.258,7.807,3.358,6.958z M7.582,7.271c0.017-0.013,0.032-0.028,0.045-0.045
	c0.107-0.11,0.208-0.228,0.3-0.353L8.843,7.79l-0.7,0.701L7.227,7.575c0.124-0.092,0.242-0.193,0.353-0.301L7.582,7.271z
	 M11.152,10.836c-0.163,0.182-0.442,0.197-0.625,0.035c-0.018-0.017-0.034-0.033-0.05-0.053l-1.979-1.98l0.699-0.7l0.791,0.791
	l0.011,0.01l1.18,1.181c0.191,0.193,0.188,0.507-0.006,0.697c-0.007,0.007-0.013,0.012-0.02,0.018L11.152,10.836z"/>
</svg>
