<svg xmlns="http://www.w3.org/2000/svg" width="33.968" height="36.194" viewBox="0 0 33.968 36.194"><defs><style>.a{fill:#0b7b99;}</style></defs><path class="a" d="M170.065,368.986h-6.692a.587.587,0,0,0,0,1.173h6.692a.587.587,0,1,0,0-1.173Z" transform="translate(-151.677 -342.714)"/><path class="a" d="M119.127,421.2a.587.587,0,0,0,.587.587h3.274a.587.587,0,0,0,0-1.173h-3.274A.587.587,0,0,0,119.127,421.2Z" transform="translate(-111.576 -389.746)"/><path class="a" d="M265.124,421.2a.587.587,0,0,0,.586.587h3.274a.587.587,0,0,0,0-1.173H265.71A.587.587,0,0,0,265.124,421.2Z" transform="translate(-246.909 -389.746)"/><path class="a" d="M220.718,420.617a.587.587,0,0,0,0,1.173h.012a.587.587,0,0,0,0-1.173Z" transform="translate(-205.571 -389.746)"/><path class="a" d="M16.328,147.379a.587.587,0,0,0,.586-.587v-.012a.586.586,0,1,0-1.173,0v.012A.587.587,0,0,0,16.328,147.379Z" transform="translate(-15.742 -135.784)"/><path class="a" d="M48.872,28.085l-3.2-3.2V6.86c0-.023,0-.045,0-.068s0-.019,0-.028,0-.025-.006-.038,0-.022-.008-.034,0-.02-.008-.03-.007-.023-.011-.035l-.01-.027-.014-.034L45.6,6.539l-.017-.031-.017-.027-.018-.027-.021-.028L45.506,6.4,45.5,6.395,40.2.247,40.188.232,40.156.2l-.022-.02L40.1.151,40.077.134,40.04.109,40.017.095,39.974.072l-.021-.01L39.9.042,39.884.035,39.83.02l-.017,0c-.019,0-.039-.007-.059-.01l-.015,0a.742.742,0,0,0-.076,0H18.925a3.188,3.188,0,0,0-3.183,3.186V7.873a.712.712,0,1,0,1.424,0V3.186a1.763,1.763,0,0,1,1.76-1.762H38.951V6.012a1.562,1.562,0,0,0,1.561,1.559H44.25V23.463L42.687,21.9l-.011-.012-.013-.011L39.307,18.52A9.474,9.474,0,1,0,23.984,20.6a.709.709,0,0,0,.112.119A9.455,9.455,0,0,0,35.29,22.538l3.355,3.356.012.013.013.012L44.251,31.5v1.506a1.763,1.763,0,0,1-1.76,1.762H18.925a1.763,1.763,0,0,1-1.76-1.762V14.22a.712.712,0,1,0-1.424,0V33.008a3.188,3.188,0,0,0,3.183,3.186H42.491a3.188,3.188,0,0,0,3.183-3.186v-.3A2.544,2.544,0,0,0,46.842,33a2.918,2.918,0,0,0,2.03-4.916Zm-8.5-22.073V2.628l3.034,3.52h-2.9A.138.138,0,0,1,40.375,6.012Zm-9.464.075a8.048,8.048,0,0,1,6.961,12.089.708.708,0,0,0-.117.194q-.21.339-.452.654a7.41,7.41,0,0,0-3.858-3.387,4.228,4.228,0,1,0-5.291,0,7.4,7.4,0,0,0-3.762,3.22A8.047,8.047,0,0,1,30.91,6.087Zm-2.915,6.255a2.8,2.8,0,1,1,2.805,2.8,2.809,2.809,0,0,1-2.805-2.8ZM25.4,20a5.968,5.968,0,0,1,10.867.143,8.1,8.1,0,0,1-1.123.84.709.709,0,0,0-.2.118A8.033,8.033,0,0,1,25.4,20Zm12.142.9a.709.709,0,0,0,.129-.129,9.552,9.552,0,0,0,.863-1.012l2.633,2.633-2,2-2.633-2.634a9.549,9.549,0,0,0,1.011-.863ZM47.8,31.146A1.274,1.274,0,0,1,45.86,31.1l-5.693-5.7,2-2,2.274,2.274.028.028,3.392,3.392A1.419,1.419,0,0,1,47.8,31.146Z" transform="translate(-15.742 0)"/></svg>