<svg xmlns="http://www.w3.org/2000/svg" width="43.077" height="40" viewBox="0 0 43.077 40"><defs><style>.a{fill:#bebebe;}</style></defs><path class="a" d="M43.692,17.221H29.548L25.25,4.394a1.558,1.558,0,0,0-2.923,0l-4.3,12.827H3.788A1.543,1.543,0,0,0,2.25,18.76a1.131,1.131,0,0,0,.029.26,1.478,1.478,0,0,0,.644,1.087L14.548,28.3,10.087,41.269A1.543,1.543,0,0,0,10.615,43a1.488,1.488,0,0,0,.865.375,1.885,1.885,0,0,0,.962-.346l11.346-8.087,11.346,8.087a1.8,1.8,0,0,0,.962.346A1.381,1.381,0,0,0,36.952,43a1.524,1.524,0,0,0,.529-1.731L33.019,28.3l11.529-8.269.279-.24a1.613,1.613,0,0,0,.5-1.029A1.628,1.628,0,0,0,43.692,17.221ZM31.462,26.115a2.7,2.7,0,0,0-.981,3.058l2.894,8.433a.386.386,0,0,1-.587.442L25.346,32.74a2.687,2.687,0,0,0-1.567-.5,2.637,2.637,0,0,0-1.558.5l-7.442,5.3a.385.385,0,0,1-.587-.442l2.894-8.433a2.71,2.71,0,0,0-.99-3.077L8.308,20.6a.387.387,0,0,1,.221-.7h9.49a2.689,2.689,0,0,0,2.548-1.837l2.846-8.481a.387.387,0,0,1,.731,0l2.846,8.481a2.689,2.689,0,0,0,2.548,1.837h9.356a.38.38,0,0,1,.221.692Z" transform="translate(-2.25 -3.375)"/></svg>