<?xml version="1.0" encoding="utf-8"?>
<!-- Generator: Adobe Illustrator 16.0.0, SVG Export Plug-In . SVG Version: 6.00 Build 0)  -->
<!DOCTYPE svg PUBLIC "-//W3C//DTD SVG 1.1//EN" "http://www.w3.org/Graphics/SVG/1.1/DTD/svg11.dtd">
<svg version="1.1" id="Layer_1" xmlns="http://www.w3.org/2000/svg" xmlns:xlink="http://www.w3.org/1999/xlink" x="0px" y="0px"
	 width="43.078px" height="40px" viewBox="0 0 43.078 40" enable-background="new 0 0 43.078 40" xml:space="preserve">
<path fill="#FF690F" d="M41.442,13.846H27.298L23,1.019c-0.298-0.807-1.194-1.22-2.001-0.922c-0.427,0.158-0.764,0.495-0.921,0.922
	l-4.3,12.827H1.538C0.689,13.849,0.002,14.536,0,15.385c0,0.088,0.009,0.175,0.029,0.26c0.042,0.44,0.278,0.839,0.644,1.087
	l11.625,8.193l-4.461,12.97c-0.216,0.63-0.003,1.328,0.528,1.73C8.605,39.84,8.909,39.973,9.23,40
	c0.346-0.024,0.679-0.145,0.962-0.346l11.346-8.088l11.346,8.088c0.28,0.205,0.614,0.326,0.962,0.346
	c0.319-0.021,0.622-0.154,0.856-0.375c0.536-0.398,0.751-1.101,0.528-1.73l-4.462-12.97l11.529-8.269l0.279-0.24
	c0.286-0.271,0.464-0.636,0.5-1.029C43.031,14.52,42.311,13.841,41.442,13.846z M29.212,22.74c-0.964,0.693-1.361,1.934-0.981,3.058
	l2.894,8.433c0.07,0.202-0.036,0.422-0.238,0.492c-0.117,0.04-0.246,0.021-0.348-0.05l-7.442-5.308
	c-0.458-0.326-1.005-0.502-1.567-0.5c-0.559-0.003-1.104,0.172-1.558,0.5l-7.442,5.3c-0.173,0.124-0.413,0.084-0.537-0.089
	c-0.073-0.103-0.092-0.234-0.05-0.354l2.894-8.433c0.385-1.132-0.018-2.382-0.99-3.077l-7.788-5.488
	c-0.173-0.126-0.211-0.368-0.085-0.541c0.071-0.099,0.185-0.158,0.306-0.16h9.49c1.156-0.001,2.182-0.741,2.548-1.837l2.846-8.481
	c0.07-0.202,0.291-0.309,0.493-0.238c0.112,0.039,0.199,0.126,0.238,0.238l2.846,8.481c0.367,1.096,1.393,1.836,2.549,1.837h9.355
	c0.21-0.002,0.382,0.166,0.385,0.376c0,0.126-0.061,0.244-0.164,0.316L29.212,22.74z"/>
</svg>
